<svg id="face_recognition" xmlns="http://www.w3.org/2000/svg" viewBox="0 0 500 500"><defs><style>.cls-1,.cls-2,.cls-3,.cls-4{fill:none;stroke-miterlimit:10;}.cls-1,.cls-2{stroke:#e4e4e4;stroke-width:11.83px;}.cls-2,.cls-3,.cls-4{stroke-linecap:round;}.cls-3,.cls-4{stroke:#ffbc00;stroke-width:11.83px;}.cls-4{stroke-dasharray:21.17 19.24;}.cls-5{fill:#ffbc00;}</style></defs><path class="cls-1" d="M250,83.3c78.77,0,86.66,51.33,86.66,99.19,0,30.46-10.72,86.31-22.91,103.91-15.27,18.6-37.1,53.4-63.75,53.4s-48.48-34.8-63.75-53.4c-12.19-17.6-22.91-73.45-22.91-103.91C163.34,134.63,171.23,83.3,250,83.3Z"/><path class="cls-2" d="M192.58,294.42v73c0,13.29-71,49.26-71,49.26"/><path class="cls-2" d="M307.42,294.42v73c0,13.29,71,49.26,71,49.26"/><path class="cls-3" d="M125,199.35q-5.56,1.1-10.76,2.28"/><path class="cls-4" d="M95.63,206.55C70.16,214.32,55,224.07,55,234.65c0,25.41,87.3,46,195,46s195-20.59,195-46c0-10.06-13.69-19.36-36.92-26.93"/><path class="cls-3" d="M398.87,204.94c-3.39-.94-6.95-1.86-10.65-2.73"/><polygon class="cls-5" points="415.52 187.71 391.62 203 406.92 226.89 390.29 223.24 375 199.35 398.89 184.06 415.52 187.71"/></svg>