<svg id="face_recognition" xmlns="http://www.w3.org/2000/svg" viewBox="0 0 500 500"><defs><style>.cls-1,.cls-2,.cls-3{fill:none;stroke-miterlimit:10;}.cls-1{stroke:#ffbc00;stroke-width:10.58px;}.cls-2,.cls-3{stroke:#e4e4e4;stroke-width:11.83px;}.cls-3{stroke-linecap:round;}</style></defs><polyline class="cls-1" points="168.21 457.09 74.07 457.09 74.07 362.95"/><polyline class="cls-1" points="425.93 362.95 425.93 457.09 331.79 457.09"/><polyline class="cls-1" points="331.8 42.91 425.93 42.91 425.93 137.05"/><polyline class="cls-1" points="74.07 137.05 74.07 42.91 168.21 42.91"/><path class="cls-2" d="M250,83.3c-78.77,0-86.66,51.33-86.66,99.19,0,30.46,10.72,86.31,22.91,103.91,15.27,18.6,37.1,53.4,63.75,53.4s48.48-34.8,63.75-53.4c12.19-17.6,22.91-73.45,22.91-103.91C336.66,134.63,328.77,83.3,250,83.3Z"/><path class="cls-3" d="M307.42,294.42v73c0,13.29,71,49.26,71,49.26"/><path class="cls-3" d="M192.58,294.42v73c0,13.29-71,49.26-71,49.26"/></svg>