<svg id="face_recognition" xmlns="http://www.w3.org/2000/svg" viewBox="0 0 500 500"><defs><style>.cls-1,.cls-2,.cls-3{fill:none;stroke-miterlimit:10;}.cls-1,.cls-2{stroke:#e4e4e4;stroke-width:11.83px;}.cls-2,.cls-3{stroke-linecap:round;}.cls-3{stroke:#ffbc00;stroke-width:11.15px;stroke-dasharray:20.74 18.85;}.cls-4{fill:#ffbc00;}</style></defs><path class="cls-1" d="M250,83.3c-78.77,0-86.66,51.33-86.66,99.19,0,30.46,10.72,86.31,22.91,103.91,15.27,18.6,37.1,53.4,63.75,53.4s48.48-34.8,63.75-53.4c12.19-17.6,22.91-73.45,22.91-103.91C336.66,134.63,328.77,83.3,250,83.3Z"/><path class="cls-2" d="M307.42,294.42v73c0,13.29,71,49.26,71,49.26"/><path class="cls-2" d="M192.58,294.42v73c0,13.29-71,49.26-71,49.26"/><path class="cls-3" d="M288.62,409.27C280.24,424.41,270.67,433,260.5,433c-32.86,0-59.5-89.65-59.5-200.25S227.64,32.5,260.5,32.5c9.86,0,24.59,10.63,34.8,25.86"/><polygon class="cls-4" points="267.86 48.33 293.62 55.53 300.8 29.76 308.68 43.74 301.5 69.5 275.75 62.32 267.86 48.33"/></svg>