<svg width="295" height="182" viewBox="0 0 295 182" fill="none" xmlns="http://www.w3.org/2000/svg">
<g clip-path="url(#clip0)">
<g clip-path="url(#clip1)">
<rect width="133.592" height="90.4975" rx="10" transform="matrix(0.884186 -0.467136 0.239671 0.970854 9.30322 114.687)" fill="#5CD8FF"/>
<g clip-path="url(#clip2)">
<path d="M120.963 64.8881L85.2349 83.7639L94.619 121.777L130.347 102.901L120.963 64.8881Z" fill="white"/>
<path d="M89.1924 84.2515L87.9419 84.9121L88.2703 86.2426L89.5208 85.5819L89.1924 84.2515Z" fill="black"/>
<path d="M90.4424 83.5908L89.1919 84.2515L89.5203 85.5819L90.7708 84.9213L90.4424 83.5908Z" fill="black"/>
<path d="M91.6929 82.9302L90.4424 83.5908L90.7708 84.9213L92.0213 84.2606L91.6929 82.9302Z" fill="black"/>
<path d="M92.9433 82.2695L91.6929 82.9302L92.0213 84.2606L93.2718 83.6L92.9433 82.2695Z" fill="black"/>
<path d="M94.1938 81.6089L92.9434 82.2695L93.2718 83.6L94.5223 82.9393L94.1938 81.6089Z" fill="black"/>
<path d="M95.4443 80.9482L94.1938 81.6089L94.5223 82.9393L95.7728 82.2787L95.4443 80.9482Z" fill="black"/>
<path d="M96.6948 80.2878L95.4443 80.9485L95.7728 82.2789L97.0233 81.6183L96.6948 80.2878Z" fill="black"/>
<path d="M99.1958 78.9663L97.9453 79.627L98.2738 80.9574L99.5242 80.2968L99.1958 78.9663Z" fill="black"/>
<path d="M102.947 76.9844L101.697 77.645L102.025 78.9755L103.276 78.3148L102.947 76.9844Z" fill="black"/>
<path d="M104.198 76.3237L102.947 76.9844L103.276 78.3148L104.526 77.6542L104.198 76.3237Z" fill="black"/>
<path d="M105.448 75.6628L104.198 76.3235L104.526 77.6539L105.777 76.9933L105.448 75.6628Z" fill="black"/>
<path d="M106.699 75.0024L105.448 75.6631L105.777 76.9935L107.027 76.3329L106.699 75.0024Z" fill="black"/>
<path d="M111.701 72.3596L110.45 73.0203L110.779 74.3507L112.029 73.6901L111.701 72.3596Z" fill="black"/>
<path d="M112.951 71.699L111.701 72.3596L112.029 73.6901L113.28 73.0294L112.951 71.699Z" fill="black"/>
<path d="M114.202 71.0383L112.951 71.699L113.28 73.0294L114.53 72.3688L114.202 71.0383Z" fill="black"/>
<path d="M115.452 70.3777L114.202 71.0383L114.53 72.3688L115.781 71.7081L115.452 70.3777Z" fill="black"/>
<path d="M116.702 69.7173L115.452 70.3779L115.78 71.7084L117.031 71.0477L116.702 69.7173Z" fill="black"/>
<path d="M117.953 69.0564L116.703 69.717L117.031 71.0475L118.282 70.3868L117.953 69.0564Z" fill="black"/>
<path d="M119.204 68.3957L117.953 69.0564L118.282 70.3868L119.532 69.7262L119.204 68.3957Z" fill="black"/>
<path d="M89.5205 85.582L88.27 86.2427L88.5985 87.5731L89.8489 86.9125L89.5205 85.582Z" fill="black"/>
<path d="M97.0234 81.6182L95.7729 82.2788L96.1014 83.6093L97.3519 82.9486L97.0234 81.6182Z" fill="black"/>
<path d="M100.775 79.636L99.5244 80.2966L99.8529 81.6271L101.103 80.9664L100.775 79.636Z" fill="black"/>
<path d="M102.025 78.9753L100.775 79.636L101.103 80.9664L102.354 80.3058L102.025 78.9753Z" fill="black"/>
<path d="M107.027 76.3328L105.776 76.9934L106.105 78.3239L107.355 77.6632L107.027 76.3328Z" fill="black"/>
<path d="M109.528 75.0115L108.278 75.6721L108.606 77.0026L109.857 76.3419L109.528 75.0115Z" fill="black"/>
<path d="M112.029 73.6902L110.779 74.3508L111.107 75.6813L112.358 75.0206L112.029 73.6902Z" fill="black"/>
<path d="M119.532 69.7263L118.281 70.387L118.61 71.7174L119.86 71.0568L119.532 69.7263Z" fill="black"/>
<path d="M89.8486 86.9123L88.5981 87.573L88.9266 88.9034L90.1771 88.2428L89.8486 86.9123Z" fill="black"/>
<path d="M92.3501 85.5911L91.0996 86.2517L91.4281 87.5822L92.6785 86.9215L92.3501 85.5911Z" fill="black"/>
<path d="M93.6006 84.9304L92.3501 85.5911L92.6785 86.9215L93.929 86.2609L93.6006 84.9304Z" fill="black"/>
<path d="M94.8511 84.2698L93.6006 84.9304L93.929 86.2609L95.1795 85.6002L94.8511 84.2698Z" fill="black"/>
<path d="M97.3516 82.9485L96.1011 83.6091L96.4295 84.9396L97.68 84.2789L97.3516 82.9485Z" fill="black"/>
<path d="M102.354 80.3057L101.103 80.9663L101.431 82.2968L102.682 81.6361L102.354 80.3057Z" fill="black"/>
<path d="M104.855 78.9846L103.604 79.6453L103.933 80.9757L105.183 80.3151L104.855 78.9846Z" fill="black"/>
<path d="M106.105 78.3237L104.854 78.9844L105.183 80.3148L106.433 79.6542L106.105 78.3237Z" fill="black"/>
<path d="M107.355 77.6633L106.105 78.324L106.433 79.6544L107.684 78.9938L107.355 77.6633Z" fill="black"/>
<path d="M112.357 75.0205L111.107 75.6812L111.435 77.0116L112.686 76.3509L112.357 75.0205Z" fill="black"/>
<path d="M114.858 73.6992L113.608 74.3599L113.936 75.6903L115.187 75.0297L114.858 73.6992Z" fill="black"/>
<path d="M116.109 73.0386L114.858 73.6992L115.187 75.0297L116.437 74.369L116.109 73.0386Z" fill="black"/>
<path d="M117.359 72.3779L116.109 73.0386L116.437 74.369L117.688 73.7084L117.359 72.3779Z" fill="black"/>
<path d="M119.86 71.0569L118.61 71.7175L118.938 73.048L120.189 72.3873L119.86 71.0569Z" fill="black"/>
<path d="M90.1772 88.2429L88.9268 88.9036L89.2552 90.234L90.5057 89.5734L90.1772 88.2429Z" fill="black"/>
<path d="M92.6782 86.9214L91.4277 87.582L91.7562 88.9125L93.0067 88.2518L92.6782 86.9214Z" fill="black"/>
<path d="M93.9287 86.261L92.6782 86.9216L93.0067 88.2521L94.2571 87.5914L93.9287 86.261Z" fill="black"/>
<path d="M95.1792 85.6003L93.9287 86.261L94.2572 87.5914L95.5076 86.9308L95.1792 85.6003Z" fill="black"/>
<path d="M97.6802 84.279L96.4297 84.9397L96.7581 86.2701L98.0086 85.6095L97.6802 84.279Z" fill="black"/>
<path d="M105.183 80.3149L103.933 80.9756L104.261 82.306L105.512 81.6454L105.183 80.3149Z" fill="black"/>
<path d="M106.434 79.6543L105.183 80.3149L105.512 81.6454L106.762 80.9847L106.434 79.6543Z" fill="black"/>
<path d="M108.935 78.333L107.684 78.9937L108.013 80.3241L109.263 79.6634L108.935 78.333Z" fill="black"/>
<path d="M110.185 77.6724L108.935 78.333L109.263 79.6635L110.513 79.0028L110.185 77.6724Z" fill="black"/>
<path d="M112.686 76.3511L111.436 77.0117L111.764 78.3422L113.014 77.6815L112.686 76.3511Z" fill="black"/>
<path d="M115.187 75.0295L113.937 75.6902L114.265 77.0206L115.515 76.36L115.187 75.0295Z" fill="black"/>
<path d="M116.437 74.3691L115.187 75.0298L115.515 76.3602L116.766 75.6996L116.437 74.3691Z" fill="black"/>
<path d="M117.687 73.7085L116.437 74.3691L116.765 75.6996L118.016 75.0389L117.687 73.7085Z" fill="black"/>
<path d="M120.188 72.3874L118.938 73.0481L119.266 74.3785L120.517 73.7179L120.188 72.3874Z" fill="black"/>
<path d="M90.5058 89.5735L89.2554 90.2341L89.5838 91.5646L90.8343 90.9039L90.5058 89.5735Z" fill="black"/>
<path d="M93.0068 88.2517L91.7563 88.9124L92.0848 90.2428L93.3353 89.5822L93.0068 88.2517Z" fill="black"/>
<path d="M94.2573 87.5915L93.0068 88.2522L93.3353 89.5826L94.5858 88.922L94.2573 87.5915Z" fill="black"/>
<path d="M95.5078 86.9307L94.2573 87.5913L94.5858 88.9218L95.8362 88.2611L95.5078 86.9307Z" fill="black"/>
<path d="M98.0088 85.6094L96.7583 86.27L97.0867 87.6005L98.3372 86.9398L98.0088 85.6094Z" fill="black"/>
<path d="M101.76 83.6274L100.51 84.2881L100.838 85.6185L102.089 84.9579L101.76 83.6274Z" fill="black"/>
<path d="M104.261 82.3061L103.01 82.9668L103.339 84.2973L104.589 83.6366L104.261 82.3061Z" fill="black"/>
<path d="M106.762 80.9849L105.511 81.6455L105.84 82.976L107.09 82.3153L106.762 80.9849Z" fill="black"/>
<path d="M108.012 80.3242L106.762 80.9849L107.09 82.3153L108.341 81.6547L108.012 80.3242Z" fill="black"/>
<path d="M110.514 79.0029L109.263 79.6636L109.592 80.994L110.842 80.3334L110.514 79.0029Z" fill="black"/>
<path d="M113.015 77.6814L111.764 78.342L112.093 79.6725L113.343 79.0118L113.015 77.6814Z" fill="black"/>
<path d="M115.515 76.3601L114.265 77.0208L114.593 78.3512L115.844 77.6905L115.515 76.3601Z" fill="black"/>
<path d="M116.766 75.6995L115.516 76.3601L115.844 77.6906L117.095 77.0299L116.766 75.6995Z" fill="black"/>
<path d="M118.016 75.0388L116.766 75.6995L117.094 77.0299L118.345 76.3693L118.016 75.0388Z" fill="black"/>
<path d="M120.517 73.7175L119.267 74.3782L119.595 75.7086L120.846 75.048L120.517 73.7175Z" fill="black"/>
<path d="M90.834 90.9038L89.5835 91.5645L89.9119 92.8949L91.1624 92.2342L90.834 90.9038Z" fill="black"/>
<path d="M98.3374 86.9397L97.0869 87.6003L97.4154 88.9308L98.6658 88.2701L98.3374 86.9397Z" fill="black"/>
<path d="M103.339 84.2971L102.089 84.9578L102.417 86.2882L103.668 85.6276L103.339 84.2971Z" fill="black"/>
<path d="M105.84 82.9758L104.59 83.6365L104.918 84.9669L106.169 84.3063L105.84 82.9758Z" fill="black"/>
<path d="M113.343 79.0119L112.092 79.6726L112.421 81.0031L113.671 80.3424L113.343 79.0119Z" fill="black"/>
<path d="M120.846 75.0478L119.595 75.7085L119.924 77.0389L121.174 76.3783L120.846 75.0478Z" fill="black"/>
<path d="M91.1626 92.2341L89.9121 92.8948L90.2406 94.2252L91.491 93.5646L91.1626 92.2341Z" fill="black"/>
<path d="M92.4136 91.5735L91.1631 92.2341L91.4915 93.5646L92.742 92.9039L92.4136 91.5735Z" fill="black"/>
<path d="M93.6636 90.9128L92.4131 91.5735L92.7415 92.9039L93.992 92.2433L93.6636 90.9128Z" fill="black"/>
<path d="M94.914 90.2522L93.6636 90.9128L93.992 92.2433L95.2425 91.5826L94.914 90.2522Z" fill="black"/>
<path d="M96.165 89.5915L94.9146 90.2522L95.243 91.5826L96.4935 90.922L96.165 89.5915Z" fill="black"/>
<path d="M97.415 88.9309L96.1646 89.5916L96.493 90.922L97.7435 90.2613L97.415 88.9309Z" fill="black"/>
<path d="M98.6655 88.2703L97.415 88.9309L97.7435 90.2614L98.994 89.6007L98.6655 88.2703Z" fill="black"/>
<path d="M101.166 86.949L99.916 87.6096L100.244 88.9401L101.495 88.2794L101.166 86.949Z" fill="black"/>
<path d="M103.667 85.6274L102.417 86.2881L102.745 87.6185L103.996 86.9579L103.667 85.6274Z" fill="black"/>
<path d="M106.168 84.3064L104.918 84.967L105.246 86.2975L106.497 85.6368L106.168 84.3064Z" fill="black"/>
<path d="M108.669 82.9851L107.419 83.6458L107.747 84.9762L108.998 84.3155L108.669 82.9851Z" fill="black"/>
<path d="M111.17 81.6638L109.92 82.3245L110.248 83.6549L111.499 82.9943L111.17 81.6638Z" fill="black"/>
<path d="M113.671 80.3425L112.421 81.0032L112.749 82.3336L114 81.673L113.671 80.3425Z" fill="black"/>
<path d="M114.921 79.6816L113.671 80.3423L113.999 81.6727L115.25 81.0121L114.921 79.6816Z" fill="black"/>
<path d="M116.172 79.021L114.922 79.6816L115.25 81.0121L116.501 80.3514L116.172 79.021Z" fill="black"/>
<path d="M117.422 78.3606L116.172 79.0212L116.5 80.3517L117.751 79.691L117.422 78.3606Z" fill="black"/>
<path d="M118.673 77.6997L117.423 78.3604L117.751 79.6908L119.002 79.0301L118.673 77.6997Z" fill="black"/>
<path d="M119.924 77.0391L118.673 77.6997L119.002 79.0302L120.252 78.3695L119.924 77.0391Z" fill="black"/>
<path d="M121.174 76.3784L119.924 77.0391L120.252 78.3695L121.503 77.7089L121.174 76.3784Z" fill="black"/>
<path d="M101.495 88.2793L100.244 88.9399L100.573 90.2704L101.823 89.6097L101.495 88.2793Z" fill="black"/>
<path d="M103.996 86.958L102.745 87.6187L103.074 88.9491L104.324 88.2884L103.996 86.958Z" fill="black"/>
<path d="M105.246 86.2974L103.996 86.958L104.324 88.2885L105.575 87.6278L105.246 86.2974Z" fill="black"/>
<path d="M107.748 84.9763L106.497 85.637L106.826 86.9674L108.076 86.3068L107.748 84.9763Z" fill="black"/>
<path d="M110.249 83.6548L108.998 84.3154L109.326 85.6459L110.577 84.9852L110.249 83.6548Z" fill="black"/>
<path d="M91.8193 94.895L90.5688 95.5557L90.8973 96.8861L92.1478 96.2255L91.8193 94.895Z" fill="black"/>
<path d="M93.0703 94.2344L91.8198 94.895L92.1483 96.2255L93.3987 95.5648L93.0703 94.2344Z" fill="black"/>
<path d="M95.5708 92.9131L94.3203 93.5737L94.6488 94.9042L95.8992 94.2435L95.5708 92.9131Z" fill="black"/>
<path d="M96.8218 92.2524L95.5713 92.9131L95.8997 94.2435L97.1502 93.5829L96.8218 92.2524Z" fill="black"/>
<path d="M99.3227 90.9309L98.0723 91.5916L98.4007 92.922L99.6512 92.2614L99.3227 90.9309Z" fill="black"/>
<path d="M103.074 88.9492L101.823 89.6099L102.152 90.9403L103.402 90.2797L103.074 88.9492Z" fill="black"/>
<path d="M104.324 88.2886L103.074 88.9492L103.402 90.2797L104.653 89.619L104.324 88.2886Z" fill="black"/>
<path d="M105.575 87.6279L104.324 88.2886L104.653 89.619L105.903 88.9584L105.575 87.6279Z" fill="black"/>
<path d="M109.326 85.646L108.076 86.3066L108.404 87.6371L109.655 86.9764L109.326 85.646Z" fill="black"/>
<path d="M110.577 84.9851L109.326 85.6458L109.655 86.9762L110.905 86.3155L110.577 84.9851Z" fill="black"/>
<path d="M114.328 83.0034L113.078 83.6641L113.406 84.9945L114.657 84.3339L114.328 83.0034Z" fill="black"/>
<path d="M121.831 79.0393L120.581 79.7L120.909 81.0304L122.159 80.3697L121.831 79.0393Z" fill="black"/>
<path d="M95.8994 94.2434L94.6489 94.9041L94.9774 96.2345L96.2278 95.5739L95.8994 94.2434Z" fill="black"/>
<path d="M102.152 90.9404L100.901 91.6011L101.23 92.9315L102.48 92.2709L102.152 90.9404Z" fill="black"/>
<path d="M103.402 90.2795L102.152 90.9402L102.48 92.2706L103.731 91.61L103.402 90.2795Z" fill="black"/>
<path d="M107.154 88.2976L105.903 88.9583L106.232 90.2887L107.482 89.628L107.154 88.2976Z" fill="black"/>
<path d="M109.655 86.9766L108.404 87.6372L108.733 88.9677L109.983 88.307L109.655 86.9766Z" fill="black"/>
<path d="M110.905 86.3157L109.655 86.9763L109.983 88.3068L111.234 87.6461L110.905 86.3157Z" fill="black"/>
<path d="M113.406 84.9944L112.156 85.655L112.484 86.9855L113.735 86.3248L113.406 84.9944Z" fill="black"/>
<path d="M115.907 83.6731L114.657 84.3337L114.985 85.6642L116.236 85.0035L115.907 83.6731Z" fill="black"/>
<path d="M117.158 83.0124L115.907 83.6731L116.236 85.0036L117.486 84.3429L117.158 83.0124Z" fill="black"/>
<path d="M118.408 82.3518L117.157 83.0125L117.486 84.3429L118.736 83.6822L118.408 82.3518Z" fill="black"/>
<path d="M119.659 81.6912L118.408 82.3518L118.737 83.6823L119.987 83.0216L119.659 81.6912Z" fill="black"/>
<path d="M120.909 81.0305L119.659 81.6912L119.987 83.0216L121.238 82.361L120.909 81.0305Z" fill="black"/>
<path d="M94.9775 96.2349L93.7271 96.8955L94.0555 98.226L95.306 97.5653L94.9775 96.2349Z" fill="black"/>
<path d="M96.228 95.574L94.9775 96.2346L95.306 97.5651L96.5565 96.9044L96.228 95.574Z" fill="black"/>
<path d="M99.9795 93.592L98.729 94.2527L99.0574 95.5831L100.308 94.9225L99.9795 93.592Z" fill="black"/>
<path d="M101.229 92.9314L99.979 93.592L100.307 94.9225L101.558 94.2618L101.229 92.9314Z" fill="black"/>
<path d="M102.48 92.2707L101.23 92.9314L101.558 94.2618L102.809 93.6012L102.48 92.2707Z" fill="black"/>
<path d="M104.981 90.9495L103.731 91.6101L104.059 92.9406L105.31 92.2799L104.981 90.9495Z" fill="black"/>
<path d="M106.231 90.2888L104.981 90.9495L105.309 92.2799L106.56 91.6193L106.231 90.2888Z" fill="black"/>
<path d="M109.983 88.3069L108.732 88.9675L109.061 90.298L110.311 89.6373L109.983 88.3069Z" fill="black"/>
<path d="M111.234 87.6462L109.983 88.3069L110.312 89.6373L111.562 88.9767L111.234 87.6462Z" fill="black"/>
<path d="M112.484 86.9856L111.233 87.6462L111.562 88.9767L112.812 88.316L112.484 86.9856Z" fill="black"/>
<path d="M114.985 85.6643L113.734 86.325L114.063 87.6554L115.313 86.9947L114.985 85.6643Z" fill="black"/>
<path d="M118.736 83.6824L117.486 84.343L117.814 85.6735L119.065 85.0128L118.736 83.6824Z" fill="black"/>
<path d="M122.488 81.7004L121.237 82.3611L121.566 83.6915L122.816 83.0309L122.488 81.7004Z" fill="black"/>
<path d="M94.0556 98.2258L92.8052 98.8865L93.1336 100.217L94.3841 99.5563L94.0556 98.2258Z" fill="black"/>
<path d="M95.3061 97.5652L94.0557 98.2258L94.3841 99.5563L95.6346 98.8956L95.3061 97.5652Z" fill="black"/>
<path d="M102.809 93.6011L101.558 94.2617L101.887 95.5922L103.137 94.9315L102.809 93.6011Z" fill="black"/>
<path d="M104.06 92.9404L102.809 93.6011L103.138 94.9315L104.388 94.2709L104.06 92.9404Z" fill="black"/>
<path d="M105.31 92.28L104.059 92.9407L104.388 94.2711L105.638 93.6105L105.31 92.28Z" fill="black"/>
<path d="M106.56 91.6191L105.31 92.2798L105.638 93.6102L106.888 92.9496L106.56 91.6191Z" fill="black"/>
<path d="M107.811 90.9585L106.56 91.6191L106.889 92.9496L108.139 92.2889L107.811 90.9585Z" fill="black"/>
<path d="M110.312 89.6372L109.061 90.2979L109.389 91.6283L110.64 90.9676L110.312 89.6372Z" fill="black"/>
<path d="M111.562 88.9766L110.312 89.6372L110.64 90.9677L111.89 90.307L111.562 88.9766Z" fill="black"/>
<path d="M115.313 86.9946L114.063 87.6553L114.391 88.9857L115.642 88.3251L115.313 86.9946Z" fill="black"/>
<path d="M119.065 85.0127L117.814 85.6733L118.143 87.0038L119.393 86.3431L119.065 85.0127Z" fill="black"/>
<path d="M120.315 84.352L119.065 85.0127L119.393 86.3431L120.644 85.6825L120.315 84.352Z" fill="black"/>
<path d="M121.566 83.6914L120.315 84.3521L120.644 85.6825L121.894 85.0218L121.566 83.6914Z" fill="black"/>
<path d="M122.816 83.0307L121.566 83.6914L121.894 85.0219L123.145 84.3612L122.816 83.0307Z" fill="black"/>
<path d="M93.1333 100.217L91.8828 100.877L92.2113 102.208L93.4617 101.547L93.1333 100.217Z" fill="black"/>
<path d="M94.3838 99.5561L93.1333 100.217L93.4617 101.547L94.7122 100.887L94.3838 99.5561Z" fill="black"/>
<path d="M95.6343 98.8955L94.3838 99.5562L94.7122 100.887L95.9627 100.226L95.6343 98.8955Z" fill="black"/>
<path d="M98.1352 97.5742L96.8848 98.2349L97.2132 99.5653L98.4637 98.9047L98.1352 97.5742Z" fill="black"/>
<path d="M99.3857 96.9136L98.1353 97.5742L98.4637 98.9047L99.7142 98.244L99.3857 96.9136Z" fill="black"/>
<path d="M100.636 96.2529L99.3857 96.9136L99.7142 98.244L100.965 97.5834L100.636 96.2529Z" fill="black"/>
<path d="M101.887 95.5923L100.636 96.2529L100.965 97.5834L102.215 96.9227L101.887 95.5923Z" fill="black"/>
<path d="M104.388 94.2707L103.137 94.9314L103.466 96.2618L104.716 95.6012L104.388 94.2707Z" fill="black"/>
<path d="M106.889 92.9497L105.638 93.6104L105.967 94.9408L107.217 94.2801L106.889 92.9497Z" fill="black"/>
<path d="M108.139 92.2891L106.888 92.9497L107.217 94.2802L108.467 93.6195L108.139 92.2891Z" fill="black"/>
<path d="M111.89 90.3071L110.64 90.9678L110.968 92.2982L112.219 91.6376L111.89 90.3071Z" fill="black"/>
<path d="M113.141 89.6462L111.891 90.3069L112.219 91.6373L113.47 90.9767L113.141 89.6462Z" fill="black"/>
<path d="M115.642 88.3252L114.391 88.9858L114.72 90.3163L115.97 89.6556L115.642 88.3252Z" fill="black"/>
<path d="M123.145 84.3613L121.894 85.022L122.222 86.3524L123.473 85.6918L123.145 84.3613Z" fill="black"/>
<path d="M93.4619 101.547L92.2114 102.208L92.5399 103.538L93.7903 102.878L93.4619 101.547Z" fill="black"/>
<path d="M95.9629 100.226L94.7124 100.887L95.0408 102.217L96.2913 101.557L95.9629 100.226Z" fill="black"/>
<path d="M97.2134 99.5652L95.9629 100.226L96.2913 101.556L97.5418 100.896L97.2134 99.5652Z" fill="black"/>
<path d="M99.7143 98.2441L98.4639 98.9048L98.7923 100.235L100.043 99.5746L99.7143 98.2441Z" fill="black"/>
<path d="M110.968 92.2983L109.718 92.959L110.046 94.2894L111.297 93.6288L110.968 92.2983Z" fill="black"/>
<path d="M112.219 91.6377L110.968 92.2983L111.297 93.6288L112.547 92.9681L112.219 91.6377Z" fill="black"/>
<path d="M113.469 90.9768L112.219 91.6375L112.547 92.9679L113.798 92.3072L113.469 90.9768Z" fill="black"/>
<path d="M114.72 90.3162L113.469 90.9768L113.798 92.3073L115.048 91.6466L114.72 90.3162Z" fill="black"/>
<path d="M118.471 88.3342L117.221 88.9949L117.549 90.3253L118.8 89.6647L118.471 88.3342Z" fill="black"/>
<path d="M122.223 86.3523L120.972 87.0129L121.301 88.3434L122.551 87.6827L122.223 86.3523Z" fill="black"/>
<path d="M93.79 102.878L92.5396 103.538L92.868 104.869L94.1185 104.208L93.79 102.878Z" fill="black"/>
<path d="M95.0405 102.217L93.79 102.878L94.1185 104.208L95.369 103.547L95.0405 102.217Z" fill="black"/>
<path d="M96.2915 101.556L95.041 102.217L95.3695 103.547L96.6199 102.887L96.2915 101.556Z" fill="black"/>
<path d="M97.5415 100.896L96.291 101.556L96.6195 102.887L97.8699 102.226L97.5415 100.896Z" fill="black"/>
<path d="M98.792 100.235L97.5415 100.896L97.8699 102.226L99.1204 101.566L98.792 100.235Z" fill="black"/>
<path d="M100.043 99.5745L98.7925 100.235L99.1209 101.566L100.371 100.905L100.043 99.5745Z" fill="black"/>
<path d="M101.293 98.9138L100.042 99.5745L100.371 100.905L101.621 100.244L101.293 98.9138Z" fill="black"/>
<path d="M103.794 97.5923L102.543 98.2529L102.872 99.5834L104.122 98.9227L103.794 97.5923Z" fill="black"/>
<path d="M105.044 96.9319L103.794 97.5925L104.122 98.923L105.373 98.2623L105.044 96.9319Z" fill="black"/>
<path d="M106.295 96.2712L105.044 96.9319L105.373 98.2623L106.623 97.6017L106.295 96.2712Z" fill="black"/>
<path d="M107.546 95.6103L106.295 96.271L106.624 97.6014L107.874 96.9408L107.546 95.6103Z" fill="black"/>
<path d="M108.796 94.9502L107.545 95.6108L107.874 96.9413L109.124 96.2806L108.796 94.9502Z" fill="black"/>
<path d="M110.046 94.2893L108.796 94.95L109.124 96.2804L110.375 95.6198L110.046 94.2893Z" fill="black"/>
<path d="M111.297 93.6286L110.046 94.2893L110.375 95.6198L111.625 94.9591L111.297 93.6286Z" fill="black"/>
<path d="M112.547 92.968L111.297 93.6287L111.625 94.9591L112.876 94.2985L112.547 92.968Z" fill="black"/>
<path d="M113.798 92.3074L112.547 92.968L112.876 94.2985L114.126 93.6378L113.798 92.3074Z" fill="black"/>
<path d="M116.299 90.9861L115.048 91.6467L115.377 92.9772L116.627 92.3165L116.299 90.9861Z" fill="black"/>
<path d="M117.549 90.3252L116.299 90.9858L116.627 92.3163L117.878 91.6556L117.549 90.3252Z" fill="black"/>
<path d="M120.05 89.0041L118.8 89.6648L119.128 90.9952L120.379 90.3346L120.05 89.0041Z" fill="black"/>
<path d="M121.301 88.3435L120.05 89.0042L120.379 90.3346L121.629 89.6739L121.301 88.3435Z" fill="black"/>
<path d="M122.551 87.6826L121.301 88.3433L121.629 89.6737L122.88 89.0131L122.551 87.6826Z" fill="black"/>
<path d="M123.802 87.0222L122.551 87.6829L122.88 89.0133L124.13 88.3527L123.802 87.0222Z" fill="black"/>
<path d="M94.1186 104.208L92.8682 104.869L93.1966 106.199L94.4471 105.539L94.1186 104.208Z" fill="black"/>
<path d="M96.6196 102.887L95.3691 103.548L95.6976 104.878L96.9481 104.217L96.6196 102.887Z" fill="black"/>
<path d="M97.8701 102.226L96.6196 102.887L96.9481 104.217L98.1985 103.557L97.8701 102.226Z" fill="black"/>
<path d="M104.123 98.9231L102.872 99.5837L103.201 100.914L104.451 100.254L104.123 98.9231Z" fill="black"/>
<path d="M105.373 98.2622L104.123 98.9229L104.451 100.253L105.701 99.5926L105.373 98.2622Z" fill="black"/>
<path d="M106.624 97.6018L105.373 98.2625L105.701 99.5929L106.952 98.9323L106.624 97.6018Z" fill="black"/>
<path d="M107.874 96.9409L106.624 97.6016L106.952 98.932L108.202 98.2714L107.874 96.9409Z" fill="black"/>
<path d="M111.625 94.959L110.375 95.6196L110.703 96.9501L111.954 96.2894L111.625 94.959Z" fill="black"/>
<path d="M112.876 94.2986L111.625 94.9592L111.954 96.2897L113.204 95.629L112.876 94.2986Z" fill="black"/>
<path d="M115.376 92.977L114.126 93.6377L114.454 94.9681L115.705 94.3075L115.376 92.977Z" fill="black"/>
<path d="M117.878 91.6558L116.627 92.3164L116.956 93.6469L118.206 92.9862L117.878 91.6558Z" fill="black"/>
<path d="M119.128 90.9951L117.878 91.6558L118.206 92.9862L119.457 92.3256L119.128 90.9951Z" fill="black"/>
<path d="M121.629 89.6738L120.379 90.3345L120.707 91.6649L121.958 91.0043L121.629 89.6738Z" fill="black"/>
<path d="M124.13 88.3525L122.879 89.0132L123.208 90.3436L124.458 89.683L124.13 88.3525Z" fill="black"/>
<path d="M94.4473 105.539L93.1968 106.199L93.5252 107.53L94.7757 106.869L94.4473 105.539Z" fill="black"/>
<path d="M98.1987 103.557L96.9482 104.217L97.2767 105.548L98.5272 104.887L98.1987 103.557Z" fill="black"/>
<path d="M101.95 101.575L100.699 102.235L101.028 103.566L102.278 102.905L101.95 101.575Z" fill="black"/>
<path d="M104.451 100.253L103.201 100.914L103.529 102.245L104.78 101.584L104.451 100.253Z" fill="black"/>
<path d="M105.702 99.5928L104.451 100.253L104.78 101.584L106.03 100.923L105.702 99.5928Z" fill="black"/>
<path d="M109.453 97.6108L108.202 98.2715L108.531 99.6019L109.781 98.9413L109.453 97.6108Z" fill="black"/>
<path d="M110.703 96.9499L109.453 97.6106L109.781 98.941L111.032 98.2804L110.703 96.9499Z" fill="black"/>
<path d="M111.954 96.2893L110.703 96.95L111.032 98.2804L112.282 97.6197L111.954 96.2893Z" fill="black"/>
<path d="M114.455 94.968L113.205 95.6287L113.533 96.9591L114.784 96.2985L114.455 94.968Z" fill="black"/>
<path d="M115.705 94.3076L114.455 94.9683L114.783 96.2987L116.034 95.6381L115.705 94.3076Z" fill="black"/>
<path d="M116.956 93.647L115.705 94.3076L116.034 95.6381L117.284 94.9774L116.956 93.647Z" fill="black"/>
<path d="M118.206 92.9861L116.956 93.6467L117.284 94.9772L118.534 94.3165L118.206 92.9861Z" fill="black"/>
<path d="M119.457 92.3257L118.206 92.9863L118.534 94.3168L119.785 93.6561L119.457 92.3257Z" fill="black"/>
<path d="M121.958 91.0041L120.707 91.6648L121.035 92.9952L122.286 92.3346L121.958 91.0041Z" fill="black"/>
<path d="M123.208 90.3437L121.958 91.0044L122.286 92.3348L123.536 91.6742L123.208 90.3437Z" fill="black"/>
<path d="M104.779 101.584L103.529 102.245L103.857 103.575L105.108 102.914L104.779 101.584Z" fill="black"/>
<path d="M106.03 100.923L104.779 101.584L105.108 102.914L106.358 102.254L106.03 100.923Z" fill="black"/>
<path d="M108.531 99.6018L107.28 100.262L107.609 101.593L108.859 100.932L108.531 99.6018Z" fill="black"/>
<path d="M109.781 98.9414L108.531 99.6021L108.859 100.933L110.11 100.272L109.781 98.9414Z" fill="black"/>
<path d="M111.032 98.2805L109.781 98.9412L110.11 100.272L111.36 99.611L111.032 98.2805Z" fill="black"/>
<path d="M114.783 96.2986L113.533 96.9592L113.861 98.2897L115.112 97.629L114.783 96.2986Z" fill="black"/>
<path d="M119.785 93.656L118.535 94.3167L118.863 95.6471L120.114 94.9864L119.785 93.656Z" fill="black"/>
<path d="M123.537 91.6741L122.286 92.3347L122.615 93.6652L123.865 93.0045L123.537 91.6741Z" fill="black"/>
<path d="M95.1045 108.199L93.854 108.86L94.1824 110.191L95.4329 109.53L95.1045 108.199Z" fill="black"/>
<path d="M96.3545 107.539L95.104 108.2L95.4324 109.53L96.6829 108.869L96.3545 107.539Z" fill="black"/>
<path d="M97.605 106.878L96.3545 107.539L96.6829 108.869L97.9334 108.209L97.605 106.878Z" fill="black"/>
<path d="M98.8555 106.218L97.605 106.878L97.9334 108.209L99.1839 107.548L98.8555 106.218Z" fill="black"/>
<path d="M100.106 105.557L98.8555 106.218L99.1839 107.548L100.434 106.888L100.106 105.557Z" fill="black"/>
<path d="M101.356 104.896L100.106 105.557L100.434 106.887L101.685 106.227L101.356 104.896Z" fill="black"/>
<path d="M102.607 104.236L101.356 104.896L101.685 106.227L102.935 105.566L102.607 104.236Z" fill="black"/>
<path d="M107.609 101.593L106.358 102.254L106.687 103.584L107.937 102.923L107.609 101.593Z" fill="black"/>
<path d="M108.859 100.932L107.609 101.593L107.937 102.923L109.188 102.263L108.859 100.932Z" fill="black"/>
<path d="M115.112 97.6291L113.861 98.2898L114.19 99.6203L115.44 98.9596L115.112 97.6291Z" fill="black"/>
<path d="M117.613 96.3079L116.362 96.9685L116.691 98.299L117.941 97.6383L117.613 96.3079Z" fill="black"/>
<path d="M120.113 94.9866L118.863 95.6472L119.191 96.9777L120.442 96.317L120.113 94.9866Z" fill="black"/>
<path d="M121.364 94.3259L120.113 94.9866L120.442 96.317L121.692 95.6564L121.364 94.3259Z" fill="black"/>
<path d="M125.115 92.3437L123.865 93.0044L124.193 94.3349L125.444 93.6742L125.115 92.3437Z" fill="black"/>
<path d="M95.4326 109.53L94.1821 110.19L94.5106 111.521L95.761 110.86L95.4326 109.53Z" fill="black"/>
<path d="M102.935 105.566L101.685 106.227L102.013 107.557L103.263 106.897L102.935 105.566Z" fill="black"/>
<path d="M106.687 103.584L105.436 104.245L105.764 105.575L107.015 104.914L106.687 103.584Z" fill="black"/>
<path d="M111.688 100.941L110.438 101.602L110.766 102.932L112.017 102.272L111.688 100.941Z" fill="black"/>
<path d="M112.939 100.281L111.688 100.942L112.017 102.272L113.267 101.611L112.939 100.281Z" fill="black"/>
<path d="M114.189 99.6201L112.939 100.281L113.267 101.611L114.518 100.951L114.189 99.6201Z" fill="black"/>
<path d="M115.44 98.9595L114.19 99.6201L114.518 100.951L115.769 100.29L115.44 98.9595Z" fill="black"/>
<path d="M120.442 96.3171L119.191 96.9778L119.52 98.3082L120.77 97.6476L120.442 96.3171Z" fill="black"/>
<path d="M124.193 94.335L122.943 94.9956L123.271 96.326L124.522 95.6654L124.193 94.335Z" fill="black"/>
<path d="M125.444 93.6743L124.193 94.335L124.522 95.6654L125.772 95.0047L125.444 93.6743Z" fill="black"/>
<path d="M95.7612 110.86L94.5107 111.521L94.8392 112.851L96.0897 112.191L95.7612 110.86Z" fill="black"/>
<path d="M98.2617 109.539L97.0112 110.2L97.3397 111.53L98.5901 110.87L98.2617 109.539Z" fill="black"/>
<path d="M99.5122 108.878L98.2617 109.539L98.5902 110.87L99.8406 110.209L99.5122 108.878Z" fill="black"/>
<path d="M100.763 108.218L99.5122 108.878L99.8407 110.209L101.091 109.548L100.763 108.218Z" fill="black"/>
<path d="M103.264 106.897L102.013 107.557L102.342 108.888L103.592 108.227L103.264 106.897Z" fill="black"/>
<path d="M105.765 105.575L104.514 106.236L104.843 107.567L106.093 106.906L105.765 105.575Z" fill="black"/>
<path d="M107.015 104.915L105.765 105.575L106.093 106.906L107.344 106.245L107.015 104.915Z" fill="black"/>
<path d="M108.266 104.254L107.015 104.915L107.344 106.245L108.594 105.584L108.266 104.254Z" fill="black"/>
<path d="M109.516 103.593L108.266 104.254L108.594 105.584L109.845 104.924L109.516 103.593Z" fill="black"/>
<path d="M110.767 102.933L109.516 103.593L109.845 104.924L111.095 104.263L110.767 102.933Z" fill="black"/>
<path d="M113.268 101.611L112.017 102.272L112.346 103.602L113.596 102.942L113.268 101.611Z" fill="black"/>
<path d="M114.518 100.951L113.268 101.611L113.596 102.942L114.846 102.281L114.518 100.951Z" fill="black"/>
<path d="M115.769 100.29L114.518 100.95L114.847 102.281L116.097 101.62L115.769 100.29Z" fill="black"/>
<path d="M117.019 99.6294L115.769 100.29L116.097 101.62L117.347 100.96L117.019 99.6294Z" fill="black"/>
<path d="M118.27 98.9687L117.019 99.6294L117.347 100.96L118.598 100.299L118.27 98.9687Z" fill="black"/>
<path d="M119.52 98.3081L118.27 98.9688L118.598 100.299L119.848 99.6385L119.52 98.3081Z" fill="black"/>
<path d="M120.771 97.6474L119.52 98.3081L119.848 99.6386L121.099 98.9779L120.771 97.6474Z" fill="black"/>
<path d="M122.021 96.9868L120.771 97.6475L121.099 98.9779L122.349 98.3173L122.021 96.9868Z" fill="black"/>
<path d="M96.0893 112.191L94.8389 112.852L95.1673 114.182L96.4178 113.521L96.0893 112.191Z" fill="black"/>
<path d="M98.5903 110.87L97.3398 111.53L97.6683 112.861L98.9188 112.2L98.5903 110.87Z" fill="black"/>
<path d="M99.8408 110.209L98.5903 110.87L98.9188 112.2L100.169 111.539L99.8408 110.209Z" fill="black"/>
<path d="M101.091 109.548L99.8408 110.209L100.169 111.539L101.42 110.879L101.091 109.548Z" fill="black"/>
<path d="M103.592 108.227L102.342 108.888L102.67 110.218L103.921 109.557L103.592 108.227Z" fill="black"/>
<path d="M106.093 106.906L104.843 107.566L105.171 108.897L106.422 108.236L106.093 106.906Z" fill="black"/>
<path d="M107.344 106.245L106.093 106.906L106.422 108.236L107.672 107.576L107.344 106.245Z" fill="black"/>
<path d="M109.844 104.924L108.594 105.584L108.922 106.915L110.173 106.254L109.844 104.924Z" fill="black"/>
<path d="M113.596 102.942L112.345 103.602L112.674 104.933L113.924 104.272L113.596 102.942Z" fill="black"/>
<path d="M114.847 102.281L113.596 102.942L113.925 104.272L115.175 103.612L114.847 102.281Z" fill="black"/>
<path d="M116.097 101.62L114.847 102.281L115.175 103.611L116.426 102.951L116.097 101.62Z" fill="black"/>
<path d="M117.348 100.96L116.097 101.62L116.426 102.951L117.676 102.29L117.348 100.96Z" fill="black"/>
<path d="M118.598 100.299L117.347 100.96L117.676 102.29L118.926 101.63L118.598 100.299Z" fill="black"/>
<path d="M119.849 99.6384L118.598 100.299L118.927 101.63L120.177 100.969L119.849 99.6384Z" fill="black"/>
<path d="M122.35 98.3174L121.099 98.978L121.428 100.308L122.678 99.6478L122.35 98.3174Z" fill="black"/>
<path d="M124.85 96.9958L123.6 97.6565L123.928 98.9869L125.179 98.3263L124.85 96.9958Z" fill="black"/>
<path d="M126.101 96.3354L124.85 96.9961L125.179 98.3265L126.429 97.6659L126.101 96.3354Z" fill="black"/>
<path d="M96.418 113.521L95.1675 114.182L95.4959 115.512L96.7464 114.852L96.418 113.521Z" fill="black"/>
<path d="M98.9189 112.2L97.6685 112.861L97.9969 114.191L99.2474 113.53L98.9189 112.2Z" fill="black"/>
<path d="M100.169 111.54L98.9189 112.2L99.2474 113.531L100.498 112.87L100.169 111.54Z" fill="black"/>
<path d="M101.42 110.879L100.169 111.54L100.498 112.87L101.748 112.209L101.42 110.879Z" fill="black"/>
<path d="M103.92 109.558L102.67 110.218L102.998 111.549L104.249 110.888L103.92 109.558Z" fill="black"/>
<path d="M107.672 107.575L106.421 108.236L106.75 109.567L108 108.906L107.672 107.575Z" fill="black"/>
<path d="M108.922 106.915L107.672 107.575L108 108.906L109.251 108.245L108.922 106.915Z" fill="black"/>
<path d="M110.173 106.254L108.922 106.915L109.251 108.245L110.501 107.585L110.173 106.254Z" fill="black"/>
<path d="M112.674 104.933L111.423 105.594L111.752 106.924L113.002 106.263L112.674 104.933Z" fill="black"/>
<path d="M113.924 104.272L112.674 104.933L113.002 106.263L114.253 105.603L113.924 104.272Z" fill="black"/>
<path d="M115.175 103.611L113.925 104.272L114.253 105.602L115.504 104.942L115.175 103.611Z" fill="black"/>
<path d="M116.425 102.951L115.175 103.612L115.503 104.942L116.754 104.281L116.425 102.951Z" fill="black"/>
<path d="M120.177 100.969L118.927 101.629L119.255 102.96L120.506 102.299L120.177 100.969Z" fill="black"/>
<path d="M121.427 100.308L120.177 100.969L120.505 102.299L121.756 101.639L121.427 100.308Z" fill="black"/>
<path d="M123.928 98.9871L122.678 99.6477L123.006 100.978L124.257 100.318L123.928 98.9871Z" fill="black"/>
<path d="M125.179 98.3264L123.928 98.9871L124.257 100.318L125.507 99.6569L125.179 98.3264Z" fill="black"/>
<path d="M126.429 97.6655L125.179 98.3262L125.507 99.6566L126.758 98.996L126.429 97.6655Z" fill="black"/>
<path d="M96.7461 114.852L95.4956 115.512L95.824 116.843L97.0745 116.182L96.7461 114.852Z" fill="black"/>
<path d="M104.249 110.888L102.999 111.548L103.327 112.879L104.577 112.218L104.249 110.888Z" fill="black"/>
<path d="M106.75 109.566L105.5 110.227L105.828 111.558L107.079 110.897L106.75 109.566Z" fill="black"/>
<path d="M114.253 105.603L113.002 106.263L113.331 107.594L114.581 106.933L114.253 105.603Z" fill="black"/>
<path d="M119.255 102.96L118.004 103.621L118.333 104.951L119.583 104.29L119.255 102.96Z" fill="black"/>
<path d="M120.505 102.299L119.254 102.96L119.583 104.29L120.833 103.63L120.505 102.299Z" fill="black"/>
<path d="M121.756 101.639L120.505 102.3L120.834 103.63L122.084 102.969L121.756 101.639Z" fill="black"/>
<path d="M124.256 100.317L123.006 100.978L123.334 102.308L124.585 101.648L124.256 100.317Z" fill="black"/>
<path d="M125.507 99.6567L124.257 100.317L124.585 101.648L125.836 100.987L125.507 99.6567Z" fill="black"/>
<path d="M126.758 98.9961L125.507 99.6567L125.836 100.987L127.086 100.327L126.758 98.9961Z" fill="black"/>
<path d="M97.0747 116.182L95.8242 116.843L96.1527 118.173L97.4031 117.513L97.0747 116.182Z" fill="black"/>
<path d="M98.3252 115.522L97.0747 116.182L97.4031 117.513L98.6536 116.852L98.3252 115.522Z" fill="black"/>
<path d="M99.5757 114.861L98.3252 115.522L98.6536 116.852L99.9041 116.192L99.5757 114.861Z" fill="black"/>
<path d="M100.826 114.2L99.5757 114.861L99.9041 116.192L101.155 115.531L100.826 114.2Z" fill="black"/>
<path d="M102.077 113.54L100.826 114.2L101.155 115.531L102.405 114.87L102.077 113.54Z" fill="black"/>
<path d="M103.327 112.879L102.077 113.54L102.405 114.87L103.656 114.21L103.327 112.879Z" fill="black"/>
<path d="M104.578 112.218L103.327 112.879L103.656 114.209L104.906 113.549L104.578 112.218Z" fill="black"/>
<path d="M107.079 110.897L105.828 111.558L106.157 112.888L107.407 112.227L107.079 110.897Z" fill="black"/>
<path d="M112.081 108.254L110.83 108.915L111.159 110.245L112.409 109.585L112.081 108.254Z" fill="black"/>
<path d="M117.082 105.612L115.832 106.272L116.16 107.603L117.41 106.942L117.082 105.612Z" fill="black"/>
<path d="M118.333 104.951L117.083 105.612L117.411 106.942L118.661 106.282L118.333 104.951Z" fill="black"/>
<path d="M119.583 104.291L118.333 104.951L118.661 106.282L119.912 105.621L119.583 104.291Z" fill="black"/>
<path d="M123.334 102.308L122.084 102.969L122.412 104.299L123.663 103.639L123.334 102.308Z" fill="black"/>
<path d="M127.086 100.326L125.835 100.987L126.164 102.318L127.414 101.657L127.086 100.326Z" fill="black"/>
</g>
</g>
<path d="M159.004 50.0684L87.9067 85.1163" stroke="#FF0000" stroke-opacity="0.4" stroke-width="2"/>
<path d="M159.003 50.0684L96.9185 117.16" stroke="#FF0000" stroke-opacity="0.4" stroke-width="2"/>
<path d="M159.004 50.0684L124.957 103.141" stroke="#FF0000" stroke-opacity="0.4" stroke-width="2"/>
<g filter="url(#filter0_d)">
<path d="M155.959 86.0643L143.238 43.5152C140.355 33.8746 144.354 24.5734 152.131 22.8542L218.765 8.11695C226.542 6.39775 235.267 12.88 238.147 22.5275L243.755 41.2794L246.221 49.5236L248.959 58.6814L253.892 75.1758L255.572 80.7903L260.5 97.2857L298.669 224.943C301.552 234.584 297.553 243.885 289.776 245.604L223.141 260.342C215.365 262.061 206.64 255.578 203.76 245.931L163.851 112.455L155.959 86.0643Z" fill="white"/>
<path fill-rule="evenodd" clip-rule="evenodd" d="M152.99 92.2761L140.269 49.7271C138.693 44.4559 139.174 39.2861 141.205 35.4017L143.964 29.8015L144.786 31.0888C146.059 30.1242 147.527 29.4275 149.162 29.066L215.797 14.3288C223.573 12.6096 232.298 19.0919 235.178 28.7394L240.786 47.4912L243.252 55.7355L245.99 64.8933L250.923 81.3876L252.603 87.0021L257.531 103.498L295.7 231.155C296.323 233.239 296.625 235.308 296.636 237.287L296.939 236.862L298.178 238.343L294.91 245.247L294.881 245.253C293.209 248.59 290.414 251.019 286.807 251.816L220.172 266.553C212.396 268.273 203.671 261.79 200.791 252.143L160.882 118.667L152.99 92.2761Z" fill="url(#paint0_linear)"/>
<path d="M222.639 259.265L289.607 244.454C296.702 242.886 300.457 234.342 297.77 225.358L237.131 22.5344C234.443 13.5447 226.362 7.62428 219.267 9.19276C219.267 9.19276 219.267 9.19276 219.267 9.19276L152.299 24.0036C145.204 25.5721 141.449 34.1152 144.136 43.0992L204.775 245.923C207.464 254.913 215.54 260.834 222.639 259.265Z" fill="url(#paint1_linear)" stroke="#F8F8F8" stroke-width="0.6"/>
<g clip-path="url(#clip3)">
<path d="M147.218 42.1676C145.225 35.5388 147.972 29.1402 153.317 27.9393L165.843 25.1395C166.293 25.0389 166.795 25.4104 166.962 25.9681C168.127 29.8431 171.64 32.4432 174.765 31.7446L206.598 24.6294C209.723 23.9307 211.328 20.1868 210.163 16.3118L210.161 16.306C209.994 15.7483 210.223 15.2134 210.673 15.1129L220.406 12.9373C225.753 11.7422 231.761 16.1901 233.754 22.8188L294.728 225.658C296.721 232.287 293.974 238.685 288.629 239.886L221.536 254.889C216.189 256.085 210.181 251.637 208.188 245.008L147.218 42.1676Z" fill="#979797"/>
<path d="M171.096 52.7526C170.479 50.702 168.83 49.8228 167.137 50.2014C165.434 50.5821 164.497 52.0392 165.114 54.0898C165.727 56.1313 167.37 57.0217 169.073 56.641C169.472 56.5518 169.83 56.4032 170.135 56.1979L170.836 56.7042L172.096 56.4226L170.844 55.5005C171.303 54.8132 171.432 53.8698 171.096 52.7526ZM167.924 54.4807L169.06 55.3571C168.957 55.4029 168.842 55.4416 168.72 55.4688C167.738 55.6884 166.882 55.1121 166.483 53.7838C166.083 52.4554 166.507 51.5932 167.489 51.3736C168.468 51.1547 169.327 51.7304 169.727 53.0587C169.932 53.7412 169.918 54.3029 169.725 54.715L169.072 54.2242L167.924 54.4807ZM175.484 52.9803C175.677 53.6101 175.336 54.039 174.859 54.1456C174.357 54.2579 173.929 53.9845 173.759 53.4313L172.929 50.6705L171.6 50.9675L172.5 53.9609C172.834 55.0589 173.69 55.5828 174.654 55.3674C175.375 55.2063 175.783 54.7264 175.832 54.1274L175.882 54.1162L176.139 54.9701L177.415 54.685L176.001 49.9838L174.672 50.2808L175.484 52.9803ZM180.688 54.0512C181.874 53.7863 182.502 53.0416 182.427 52.1275L181.174 52.3226C181.148 52.7107 180.861 52.9741 180.418 53.0731C179.753 53.2216 179.202 52.8841 178.992 52.1832L178.991 52.1802L182.253 51.4509L182.146 51.0928C181.665 49.4952 180.442 48.9258 179.176 49.2089C177.766 49.524 177.148 50.7107 177.584 52.1615C178.032 53.652 179.213 54.381 180.688 54.0512ZM178.748 51.3722C178.615 50.8303 178.901 50.309 179.49 50.1773C180.067 50.0483 180.588 50.3631 180.76 50.9225L178.748 51.3722ZM178.504 48.7777L179.443 48.5679L179.975 46.9626L178.746 47.2373L178.504 48.7777ZM184.862 48.0033L183.96 48.2048L183.622 47.0785L182.293 47.3755L182.631 48.5018L181.976 48.6482L182.271 49.6276L182.926 49.4812L183.662 51.9297C183.933 52.8524 184.709 53.1655 185.661 52.9103C186.001 52.8214 186.224 52.6997 186.345 52.6268L185.844 51.7033C185.782 51.7302 185.651 51.7922 185.527 51.8201C185.261 51.8793 185.048 51.8225 184.939 51.4613L184.255 49.1842L185.156 48.9827L184.862 48.0033ZM194.126 47.6049C193.51 45.5542 191.861 44.6751 190.167 45.0536C188.464 45.4343 187.527 46.8914 188.144 48.9421C188.758 50.9835 190.4 51.8739 192.103 51.4933C192.502 51.404 192.86 51.2554 193.165 51.0502L193.866 51.5565L195.126 51.2748L193.874 50.3527C194.333 49.6654 194.462 48.722 194.126 47.6049ZM190.954 49.333L192.09 50.2093C191.987 50.2551 191.872 50.2939 191.751 50.321C190.768 50.5407 189.913 49.9643 189.513 48.636C189.114 47.3077 189.537 46.4455 190.519 46.2259C191.499 46.007 192.358 46.5826 192.757 47.9109C192.962 48.5935 192.948 49.1552 192.756 49.5673L192.102 49.0764L190.954 49.333ZM196.069 50.5154L197.42 50.2135L196.751 47.9915L197.737 47.7711L199.615 49.7227L201.106 49.3894L199.017 47.2564C199.652 46.7879 199.867 46.0767 199.61 45.2197C199.235 43.974 198.155 43.3596 196.704 43.6838L194.184 44.2471L196.069 50.5154ZM196.431 46.9263L195.861 45.0287L196.771 44.8252C197.551 44.6509 198.031 44.9062 198.218 45.5306C198.405 46.1519 198.122 46.5485 197.348 46.7214L196.431 46.9263ZM206.033 48.3862C207.309 48.101 207.89 47.1873 207.627 46.0929L206.373 46.3732C206.446 46.8926 206.194 47.2495 205.739 47.3512C205.118 47.49 204.562 47.0688 204.291 46.1689C204.024 45.2814 204.277 44.6827 204.895 44.5446C205.381 44.4359 205.788 44.6814 206.001 45.1336L207.254 44.8534C206.872 43.7794 205.818 43.2538 204.567 43.5333C203.114 43.8582 202.513 45.0476 202.946 46.4892C203.376 47.9185 204.558 48.7159 206.033 48.3862ZM211.188 47.2339C212.642 46.909 213.253 45.7305 212.817 44.2828C212.379 42.8259 211.182 42.0548 209.729 42.3797C208.275 42.7046 207.663 43.8801 208.101 45.3369C208.537 46.7846 209.735 47.5588 211.188 47.2339ZM210.891 46.2225C210.22 46.3724 209.696 45.8461 209.449 45.0259C209.202 44.2056 209.363 43.5229 210.034 43.373C210.692 43.2259 211.217 43.7552 211.464 44.5755C211.711 45.3958 211.549 46.0754 210.891 46.2225ZM216.171 46.1038C216.944 45.9309 217.215 45.4033 217.281 44.9704L217.338 44.9579L217.564 45.7108L218.874 45.418L216.989 39.1497L215.664 39.446L216.372 41.8028L216.332 41.8118C216.039 41.469 215.514 41.0864 214.713 41.2656C213.662 41.5006 213.014 42.5012 213.5 44.1172C213.973 45.6904 215.079 46.3478 216.171 46.1038ZM216.28 44.9721C215.628 45.1179 215.101 44.628 214.855 43.8078C214.61 42.9937 214.791 42.3555 215.449 42.2084C216.095 42.064 216.618 42.5188 216.87 43.3574C217.122 44.196 216.919 44.8292 216.28 44.9721ZM222.177 44.7776C223.363 44.5127 223.991 43.768 223.916 42.8538L222.663 43.049C222.636 43.437 222.349 43.7004 221.907 43.7994C221.242 43.9479 220.691 43.6105 220.481 42.9096L220.48 42.9065L223.742 42.1773L223.635 41.8192C223.154 40.2215 221.931 39.6522 220.665 39.9352C219.255 40.2504 218.636 41.4371 219.073 42.8879C219.521 44.3784 220.702 45.1074 222.177 44.7776ZM220.237 42.0985C220.104 41.5566 220.39 41.0354 220.979 40.9036C221.556 40.7747 222.077 41.0894 222.249 41.6488L220.237 42.0985ZM170.445 62.4678L169.544 62.6692L169.205 61.5429L167.877 61.8399L168.215 62.9662L167.56 63.1127L167.855 64.0921L168.51 63.9457L169.246 66.3942C169.517 67.3168 170.293 67.63 171.245 67.3747C171.584 67.2858 171.807 67.1641 171.929 67.0913L171.428 66.1678C171.366 66.1946 171.235 66.2566 171.11 66.2845C170.845 66.3438 170.632 66.287 170.523 65.9258L169.838 63.6487L170.74 63.4472L170.445 62.4678ZM172.724 66.9755L174.053 66.6785L173.253 64.0188C173.079 63.4403 173.39 62.9462 173.977 62.8151C174.161 62.774 174.422 62.7481 174.559 62.76L174.211 61.6031C174.085 61.6021 173.914 61.6206 173.78 61.6506C173.243 61.7705 172.895 62.1749 172.896 62.7955L172.846 62.8066L172.599 61.9864L171.311 62.2743L172.724 66.9755ZM178.306 65.8258C179.491 65.5609 180.12 64.8162 180.045 63.9021L178.792 64.0972C178.765 64.4852 178.478 64.7486 178.035 64.8476C177.371 64.9961 176.82 64.6587 176.609 63.9578L176.609 63.9547L179.871 63.2255L179.763 62.8674C179.283 61.2697 178.06 60.7004 176.794 60.9834C175.384 61.2986 174.765 62.4853 175.202 63.9361C175.65 65.4266 176.831 66.1556 178.306 65.8258ZM175.986 60.6347L176.389 59.7478L177.24 60.3545L178.373 60.1014L178.36 60.0585L176.688 58.9949L175.7 59.2159L174.841 60.8449L174.854 60.8878L175.986 60.6347ZM176.366 63.1467C176.233 62.6048 176.519 62.0836 177.108 61.9519C177.685 61.8229 178.206 62.1376 178.377 62.6971L176.366 63.1467ZM181.856 62.0338C181.677 61.4271 181.938 60.9898 182.475 60.8699C183.008 60.7507 183.433 61.0216 183.602 61.5977L184.433 64.3585L185.761 64.0615L184.861 61.0681C184.532 59.9724 183.674 59.4455 182.676 59.6686C181.965 59.8275 181.553 60.2854 181.503 60.8813L181.447 60.8939L181.197 60.0644L179.931 60.3475L181.345 65.0487L182.673 64.7517L181.856 62.0338ZM193.278 58.0339C192.664 56.6259 191.298 56.043 189.819 56.3735C188.132 56.7507 187.195 58.2078 187.812 60.2584C188.426 62.3029 190.046 63.1952 191.755 62.8131C193.393 62.4471 194.06 61.1579 193.86 59.9713L192.492 60.2705C192.566 60.9694 192.145 61.475 191.425 61.636C190.455 61.8528 189.584 61.2929 189.181 59.9523C188.789 58.6485 189.214 57.7598 190.203 57.5387C190.942 57.3735 191.601 57.6736 191.911 58.3393L193.278 58.0339ZM199.882 56.5576C199.269 55.1497 197.902 54.5668 196.424 54.8972C194.736 55.2744 193.8 56.7315 194.416 58.7821C195.031 60.8267 196.651 61.7189 198.36 61.3369C199.997 60.9708 200.665 59.6817 200.465 58.495L199.097 58.7943C199.17 59.4931 198.75 59.9987 198.029 60.1597C197.059 60.3766 196.189 59.8167 195.785 58.4761C195.393 57.1722 195.819 56.2835 196.807 56.0625C197.547 55.8972 198.206 56.1973 198.516 56.863L199.882 56.5576ZM206.487 55.0814C205.874 53.6734 204.507 53.0905 203.028 53.4209C201.341 53.7981 200.404 55.2552 201.021 57.3059C201.636 59.3504 203.255 60.2426 204.965 59.8606C206.602 59.4946 207.27 58.2054 207.069 57.0188L205.701 57.318C205.775 58.0169 205.354 58.5224 204.634 58.6835C203.664 58.9003 202.793 58.3404 202.39 56.9998C201.998 55.696 202.423 54.8072 203.412 54.5862C204.151 54.421 204.811 54.7211 205.121 55.3867L206.487 55.0814ZM210.944 58.4325C212.891 57.9974 213.715 56.5525 213.126 54.5937C212.538 52.641 211.006 51.7292 209.078 52.1601L206.795 52.6704L208.68 58.9386L210.944 58.4325ZM209.689 57.5012L208.487 53.504L209.348 53.3116C210.546 53.0439 211.359 53.5022 211.778 54.8948C212.199 56.2936 211.748 57.0411 210.547 57.3095L209.689 57.5012Z" fill="white"/>
<g clip-path="url(#clip4)">
<path d="M231.251 74.3735L178.768 86.1047L198.332 151.172L250.816 139.441L231.251 74.3735Z" fill="white"/>
<path d="M184.927 88.8943L183.09 89.3049L183.775 91.5823L185.612 91.1717L184.927 88.8943Z" fill="black"/>
<path d="M186.765 88.4837L184.928 88.8943L185.612 91.1716L187.449 90.7611L186.765 88.4837Z" fill="black"/>
<path d="M188.601 88.073L186.764 88.4836L187.449 90.761L189.286 90.3504L188.601 88.073Z" fill="black"/>
<path d="M190.438 87.6626L188.602 88.0732L189.286 90.3506L191.123 89.94L190.438 87.6626Z" fill="black"/>
<path d="M192.275 87.2518L190.438 87.6624L191.123 89.9397L192.96 89.5291L192.275 87.2518Z" fill="black"/>
<path d="M194.112 86.8414L192.275 87.252L192.96 89.5293L194.797 89.1187L194.112 86.8414Z" fill="black"/>
<path d="M195.949 86.4307L194.112 86.8413L194.797 89.1187L196.634 88.7081L195.949 86.4307Z" fill="black"/>
<path d="M199.623 85.6094L197.786 86.02L198.471 88.2974L200.308 87.8868L199.623 85.6094Z" fill="black"/>
<path d="M205.134 84.3777L203.297 84.7883L203.982 87.0657L205.819 86.6551L205.134 84.3777Z" fill="black"/>
<path d="M206.971 83.9671L205.134 84.3777L205.819 86.655L207.655 86.2444L206.971 83.9671Z" fill="black"/>
<path d="M208.808 83.5567L206.971 83.9673L207.655 86.2446L209.492 85.8341L208.808 83.5567Z" fill="black"/>
<path d="M210.645 83.146L208.808 83.5566L209.492 85.834L211.329 85.4234L210.645 83.146Z" fill="black"/>
<path d="M217.992 81.5037L216.155 81.9143L216.84 84.1917L218.677 83.7811L217.992 81.5037Z" fill="black"/>
<path d="M219.829 81.0931L217.992 81.5037L218.677 83.781L220.514 83.3704L219.829 81.0931Z" fill="black"/>
<path d="M221.666 80.6824L219.829 81.093L220.514 83.3704L222.351 82.9598L221.666 80.6824Z" fill="black"/>
<path d="M223.503 80.2718L221.666 80.6824L222.351 82.9597L224.188 82.5491L223.503 80.2718Z" fill="black"/>
<path d="M225.34 79.8611L223.503 80.2717L224.188 82.5491L226.025 82.1385L225.34 79.8611Z" fill="black"/>
<path d="M227.177 79.4507L225.34 79.8613L226.025 82.1387L227.862 81.7281L227.177 79.4507Z" fill="black"/>
<path d="M229.014 79.0401L227.177 79.4507L227.862 81.728L229.698 81.3174L229.014 79.0401Z" fill="black"/>
<path d="M185.612 91.1717L183.775 91.5823L184.46 93.8596L186.297 93.449L185.612 91.1717Z" fill="black"/>
<path d="M196.634 88.7081L194.797 89.1187L195.482 91.396L197.319 90.9854L196.634 88.7081Z" fill="black"/>
<path d="M202.145 87.4764L200.308 87.887L200.992 90.1643L202.829 89.7537L202.145 87.4764Z" fill="black"/>
<path d="M203.981 87.0657L202.145 87.4763L202.829 89.7537L204.666 89.3431L203.981 87.0657Z" fill="black"/>
<path d="M211.33 85.4234L209.493 85.834L210.177 88.1113L212.014 87.7007L211.33 85.4234Z" fill="black"/>
<path d="M215.003 84.6021L213.166 85.0127L213.851 87.2901L215.688 86.8795L215.003 84.6021Z" fill="black"/>
<path d="M218.677 83.7811L216.84 84.1917L217.525 86.469L219.362 86.0584L218.677 83.7811Z" fill="black"/>
<path d="M229.699 81.3174L227.862 81.728L228.547 84.0054L230.384 83.5948L229.699 81.3174Z" fill="black"/>
<path d="M186.297 93.449L184.46 93.8596L185.145 96.137L186.982 95.7264L186.297 93.449Z" fill="black"/>
<path d="M189.971 92.6277L188.134 93.0383L188.819 95.3157L190.655 94.9051L189.971 92.6277Z" fill="black"/>
<path d="M191.808 92.2173L189.971 92.6279L190.655 94.9053L192.492 94.4947L191.808 92.2173Z" fill="black"/>
<path d="M193.645 91.8067L191.808 92.2173L192.492 94.4946L194.329 94.0841L193.645 91.8067Z" fill="black"/>
<path d="M197.318 90.9854L195.481 91.396L196.166 93.6734L198.003 93.2628L197.318 90.9854Z" fill="black"/>
<path d="M204.666 89.3431L202.829 89.7537L203.514 92.031L205.351 91.6204L204.666 89.3431Z" fill="black"/>
<path d="M208.34 88.5218L206.503 88.9324L207.188 91.2097L209.025 90.7991L208.34 88.5218Z" fill="black"/>
<path d="M210.177 88.1114L208.34 88.522L209.025 90.7993L210.862 90.3887L210.177 88.1114Z" fill="black"/>
<path d="M212.014 87.7007L210.177 88.1113L210.862 90.3887L212.699 89.9781L212.014 87.7007Z" fill="black"/>
<path d="M219.362 86.0584L217.525 86.469L218.21 88.7464L220.047 88.3358L219.362 86.0584Z" fill="black"/>
<path d="M223.036 85.2371L221.199 85.6477L221.883 87.9251L223.72 87.5145L223.036 85.2371Z" fill="black"/>
<path d="M224.873 84.8267L223.036 85.2373L223.72 87.5147L225.557 87.1041L224.873 84.8267Z" fill="black"/>
<path d="M226.709 84.4161L224.873 84.8267L225.557 87.104L227.394 86.6934L226.709 84.4161Z" fill="black"/>
<path d="M230.383 83.5948L228.546 84.0054L229.231 86.2827L231.068 85.8721L230.383 83.5948Z" fill="black"/>
<path d="M186.981 95.7264L185.145 96.137L185.829 98.4143L187.666 98.0037L186.981 95.7264Z" fill="black"/>
<path d="M190.655 94.9053L188.818 95.3159L189.503 97.5933L191.34 97.1827L190.655 94.9053Z" fill="black"/>
<path d="M192.492 94.4947L190.655 94.9053L191.34 97.1826L193.177 96.772L192.492 94.4947Z" fill="black"/>
<path d="M194.33 94.084L192.493 94.4946L193.177 96.772L195.014 96.3614L194.33 94.084Z" fill="black"/>
<path d="M198.003 93.2627L196.167 93.6733L196.851 95.9507L198.688 95.5401L198.003 93.2627Z" fill="black"/>
<path d="M209.025 90.7994L207.188 91.21L207.873 93.4873L209.71 93.0767L209.025 90.7994Z" fill="black"/>
<path d="M210.862 90.3887L209.025 90.7993L209.71 93.0767L211.547 92.6661L210.862 90.3887Z" fill="black"/>
<path d="M214.536 89.5674L212.699 89.978L213.383 92.2554L215.22 91.8448L214.536 89.5674Z" fill="black"/>
<path d="M216.373 89.157L214.536 89.5676L215.22 91.845L217.057 91.4344L216.373 89.157Z" fill="black"/>
<path d="M220.046 88.3357L218.209 88.7463L218.894 91.0237L220.731 90.6131L220.046 88.3357Z" fill="black"/>
<path d="M223.72 87.5145L221.883 87.925L222.568 90.2024L224.405 89.7918L223.72 87.5145Z" fill="black"/>
<path d="M225.557 87.1038L223.72 87.5144L224.405 89.7918L226.242 89.3812L225.557 87.1038Z" fill="black"/>
<path d="M227.394 86.6934L225.557 87.104L226.242 89.3814L228.079 88.9708L227.394 86.6934Z" fill="black"/>
<path d="M231.068 85.8721L229.231 86.2827L229.916 88.5601L231.753 88.1495L231.068 85.8721Z" fill="black"/>
<path d="M187.667 98.0037L185.83 98.4143L186.514 100.692L188.351 100.281L187.667 98.0037Z" fill="black"/>
<path d="M191.34 97.1824L189.503 97.593L190.188 99.8704L192.025 99.4598L191.34 97.1824Z" fill="black"/>
<path d="M193.177 96.772L191.34 97.1826L192.025 99.46L193.862 99.0494L193.177 96.772Z" fill="black"/>
<path d="M195.014 96.3614L193.177 96.772L193.862 99.0493L195.699 98.6387L195.014 96.3614Z" fill="black"/>
<path d="M198.688 95.5401L196.851 95.9507L197.536 98.228L199.373 97.8174L198.688 95.5401Z" fill="black"/>
<path d="M204.199 94.3084L202.362 94.719L203.047 96.9964L204.883 96.5858L204.199 94.3084Z" fill="black"/>
<path d="M207.873 93.4874L206.036 93.8979L206.72 96.1753L208.557 95.7647L207.873 93.4874Z" fill="black"/>
<path d="M211.546 92.6661L209.709 93.0767L210.394 95.354L212.231 94.9434L211.546 92.6661Z" fill="black"/>
<path d="M213.383 92.2554L211.546 92.666L212.231 94.9434L214.068 94.5328L213.383 92.2554Z" fill="black"/>
<path d="M217.058 91.4341L215.221 91.8447L215.905 94.1221L217.742 93.7115L217.058 91.4341Z" fill="black"/>
<path d="M220.731 90.6131L218.895 91.0237L219.579 93.301L221.416 92.8904L220.731 90.6131Z" fill="black"/>
<path d="M224.405 89.7918L222.568 90.2024L223.253 92.4798L225.09 92.0692L224.405 89.7918Z" fill="black"/>
<path d="M226.242 89.3814L224.405 89.792L225.09 92.0694L226.926 91.6588L226.242 89.3814Z" fill="black"/>
<path d="M228.079 88.9708L226.242 89.3813L226.927 91.6587L228.764 91.2481L228.079 88.9708Z" fill="black"/>
<path d="M231.753 88.1495L229.916 88.5601L230.601 90.8374L232.438 90.4268L231.753 88.1495Z" fill="black"/>
<path d="M188.351 100.281L186.514 100.692L187.199 102.969L189.036 102.558L188.351 100.281Z" fill="black"/>
<path d="M199.373 97.8177L197.536 98.2283L198.22 100.506L200.057 100.095L199.373 97.8177Z" fill="black"/>
<path d="M206.721 96.1751L204.884 96.5857L205.569 98.8631L207.405 98.4525L206.721 96.1751Z" fill="black"/>
<path d="M210.395 95.3541L208.558 95.7646L209.242 98.042L211.079 97.6314L210.395 95.3541Z" fill="black"/>
<path d="M221.416 92.8904L219.579 93.301L220.264 95.5784L222.101 95.1678L221.416 92.8904Z" fill="black"/>
<path d="M232.438 90.4268L230.601 90.8374L231.285 93.1148L233.122 92.7042L232.438 90.4268Z" fill="black"/>
<path d="M189.036 102.558L187.199 102.969L187.883 105.246L189.72 104.836L189.036 102.558Z" fill="black"/>
<path d="M190.873 102.148L189.036 102.559L189.721 104.836L191.558 104.425L190.873 102.148Z" fill="black"/>
<path d="M192.71 101.737L190.873 102.148L191.558 104.425L193.395 104.015L192.71 101.737Z" fill="black"/>
<path d="M194.547 101.327L192.71 101.737L193.395 104.015L195.232 103.604L194.547 101.327Z" fill="black"/>
<path d="M196.384 100.916L194.547 101.327L195.232 103.604L197.069 103.193L196.384 100.916Z" fill="black"/>
<path d="M198.221 100.505L196.384 100.916L197.069 103.193L198.905 102.783L198.221 100.505Z" fill="black"/>
<path d="M200.058 100.095L198.221 100.505L198.905 102.783L200.742 102.372L200.058 100.095Z" fill="black"/>
<path d="M203.731 99.2737L201.895 99.6843L202.579 101.962L204.416 101.551L203.731 99.2737Z" fill="black"/>
<path d="M207.405 98.4524L205.568 98.863L206.253 101.14L208.09 100.73L207.405 98.4524Z" fill="black"/>
<path d="M211.079 97.6314L209.242 98.042L209.927 100.319L211.764 99.9088L211.079 97.6314Z" fill="black"/>
<path d="M214.753 96.8101L212.916 97.2207L213.601 99.4981L215.438 99.0875L214.753 96.8101Z" fill="black"/>
<path d="M218.427 95.9891L216.59 96.3997L217.275 98.677L219.112 98.2664L218.427 95.9891Z" fill="black"/>
<path d="M222.101 95.1678L220.264 95.5784L220.948 97.8557L222.785 97.4451L222.101 95.1678Z" fill="black"/>
<path d="M223.938 94.7571L222.101 95.1677L222.785 97.4451L224.622 97.0345L223.938 94.7571Z" fill="black"/>
<path d="M225.775 94.3465L223.938 94.7571L224.623 97.0344L226.46 96.6238L225.775 94.3465Z" fill="black"/>
<path d="M227.612 93.9358L225.775 94.3464L226.46 96.6238L228.297 96.2132L227.612 93.9358Z" fill="black"/>
<path d="M229.449 93.5254L227.612 93.936L228.297 96.2134L230.133 95.8028L229.449 93.5254Z" fill="black"/>
<path d="M231.286 93.1148L229.449 93.5254L230.133 95.8028L231.97 95.3922L231.286 93.1148Z" fill="black"/>
<path d="M233.123 92.7042L231.286 93.1147L231.97 95.3921L233.807 94.9815L233.123 92.7042Z" fill="black"/>
<path d="M204.416 101.551L202.579 101.962L203.264 104.239L205.101 103.828L204.416 101.551Z" fill="black"/>
<path d="M208.09 100.73L206.253 101.141L206.938 103.418L208.775 103.007L208.09 100.73Z" fill="black"/>
<path d="M209.927 100.319L208.09 100.73L208.775 103.007L210.612 102.597L209.927 100.319Z" fill="black"/>
<path d="M213.601 99.4981L211.764 99.9087L212.449 102.186L214.286 101.775L213.601 99.4981Z" fill="black"/>
<path d="M217.274 98.6768L215.438 99.0874L216.122 101.365L217.959 100.954L217.274 98.6768Z" fill="black"/>
<path d="M190.405 107.113L188.568 107.524L189.253 109.801L191.09 109.39L190.405 107.113Z" fill="black"/>
<path d="M192.242 106.703L190.405 107.113L191.09 109.391L192.927 108.98L192.242 106.703Z" fill="black"/>
<path d="M195.916 105.881L194.079 106.292L194.764 108.569L196.601 108.159L195.916 105.881Z" fill="black"/>
<path d="M197.753 105.471L195.916 105.881L196.601 108.159L198.438 107.748L197.753 105.471Z" fill="black"/>
<path d="M201.427 104.65L199.59 105.06L200.275 107.338L202.112 106.927L201.427 104.65Z" fill="black"/>
<path d="M206.938 103.418L205.101 103.829L205.785 106.106L207.622 105.695L206.938 103.418Z" fill="black"/>
<path d="M208.774 103.007L206.938 103.418L207.622 105.695L209.459 105.284L208.774 103.007Z" fill="black"/>
<path d="M210.612 102.597L208.775 103.007L209.46 105.285L211.297 104.874L210.612 102.597Z" fill="black"/>
<path d="M216.123 101.365L214.286 101.775L214.97 104.053L216.807 103.642L216.123 101.365Z" fill="black"/>
<path d="M217.959 100.954L216.123 101.365L216.807 103.642L218.644 103.232L217.959 100.954Z" fill="black"/>
<path d="M223.47 99.7225L221.633 100.133L222.318 102.41L224.155 102L223.47 99.7225Z" fill="black"/>
<path d="M234.492 97.2591L232.655 97.6697L233.34 99.947L235.176 99.5364L234.492 97.2591Z" fill="black"/>
<path d="M196.601 108.159L194.764 108.569L195.448 110.847L197.285 110.436L196.601 108.159Z" fill="black"/>
<path d="M205.786 106.106L203.949 106.516L204.633 108.794L206.47 108.383L205.786 106.106Z" fill="black"/>
<path d="M207.623 105.695L205.786 106.106L206.47 108.383L208.307 107.972L207.623 105.695Z" fill="black"/>
<path d="M213.133 104.463L211.296 104.874L211.981 107.151L213.818 106.741L213.133 104.463Z" fill="black"/>
<path d="M216.807 103.642L214.97 104.053L215.655 106.33L217.492 105.919L216.807 103.642Z" fill="black"/>
<path d="M218.644 103.232L216.807 103.642L217.492 105.92L219.329 105.509L218.644 103.232Z" fill="black"/>
<path d="M222.318 102.41L220.481 102.821L221.166 105.098L223.003 104.688L222.318 102.41Z" fill="black"/>
<path d="M225.992 101.589L224.155 102L224.84 104.277L226.676 103.867L225.992 101.589Z" fill="black"/>
<path d="M227.829 101.179L225.992 101.589L226.676 103.866L228.513 103.456L227.829 101.179Z" fill="black"/>
<path d="M229.666 100.768L227.829 101.179L228.513 103.456L230.35 103.045L229.666 100.768Z" fill="black"/>
<path d="M231.502 100.357L229.666 100.768L230.35 103.045L232.187 102.635L231.502 100.357Z" fill="black"/>
<path d="M233.34 99.9468L231.503 100.357L232.188 102.635L234.025 102.224L233.34 99.9468Z" fill="black"/>
<path d="M195.449 110.847L193.612 111.257L194.297 113.535L196.134 113.124L195.449 110.847Z" fill="black"/>
<path d="M197.286 110.436L195.449 110.847L196.133 113.124L197.97 112.713L197.286 110.436Z" fill="black"/>
<path d="M202.796 109.204L200.959 109.615L201.644 111.892L203.481 111.482L202.796 109.204Z" fill="black"/>
<path d="M204.633 108.794L202.796 109.204L203.481 111.482L205.318 111.071L204.633 108.794Z" fill="black"/>
<path d="M206.47 108.383L204.633 108.794L205.318 111.071L207.155 110.66L206.47 108.383Z" fill="black"/>
<path d="M210.145 107.562L208.308 107.973L208.992 110.25L210.829 109.839L210.145 107.562Z" fill="black"/>
<path d="M211.981 107.151L210.144 107.562L210.829 109.839L212.666 109.429L211.981 107.151Z" fill="black"/>
<path d="M217.492 105.919L215.655 106.33L216.34 108.607L218.176 108.197L217.492 105.919Z" fill="black"/>
<path d="M219.329 105.509L217.492 105.919L218.176 108.197L220.013 107.786L219.329 105.509Z" fill="black"/>
<path d="M221.166 105.098L219.329 105.509L220.014 107.786L221.851 107.376L221.166 105.098Z" fill="black"/>
<path d="M224.84 104.277L223.003 104.688L223.688 106.965L225.525 106.555L224.84 104.277Z" fill="black"/>
<path d="M230.351 103.045L228.514 103.456L229.198 105.733L231.035 105.323L230.351 103.045Z" fill="black"/>
<path d="M235.861 101.814L234.024 102.224L234.709 104.502L236.546 104.091L235.861 101.814Z" fill="black"/>
<path d="M194.296 113.535L192.459 113.945L193.144 116.223L194.981 115.812L194.296 113.535Z" fill="black"/>
<path d="M196.134 113.124L194.297 113.535L194.982 115.812L196.819 115.401L196.134 113.124Z" fill="black"/>
<path d="M207.155 110.661L205.318 111.071L206.003 113.349L207.84 112.938L207.155 110.661Z" fill="black"/>
<path d="M208.992 110.25L207.155 110.66L207.84 112.938L209.677 112.527L208.992 110.25Z" fill="black"/>
<path d="M210.829 109.839L208.992 110.25L209.677 112.527L211.514 112.117L210.829 109.839Z" fill="black"/>
<path d="M212.666 109.429L210.829 109.839L211.514 112.117L213.351 111.706L212.666 109.429Z" fill="black"/>
<path d="M214.503 109.018L212.666 109.429L213.351 111.706L215.188 111.295L214.503 109.018Z" fill="black"/>
<path d="M218.177 108.197L216.34 108.607L217.025 110.885L218.862 110.474L218.177 108.197Z" fill="black"/>
<path d="M220.014 107.786L218.177 108.197L218.862 110.474L220.698 110.064L220.014 107.786Z" fill="black"/>
<path d="M225.524 106.554L223.688 106.965L224.372 109.242L226.209 108.832L225.524 106.554Z" fill="black"/>
<path d="M231.035 105.323L229.198 105.733L229.883 108.011L231.72 107.6L231.035 105.323Z" fill="black"/>
<path d="M232.872 104.912L231.035 105.323L231.72 107.6L233.557 107.19L232.872 104.912Z" fill="black"/>
<path d="M234.709 104.502L232.872 104.912L233.557 107.19L235.394 106.779L234.709 104.502Z" fill="black"/>
<path d="M236.546 104.091L234.709 104.501L235.394 106.779L237.231 106.368L236.546 104.091Z" fill="black"/>
<path d="M193.144 116.223L191.307 116.633L191.992 118.911L193.829 118.5L193.144 116.223Z" fill="black"/>
<path d="M194.981 115.812L193.145 116.223L193.829 118.5L195.666 118.089L194.981 115.812Z" fill="black"/>
<path d="M196.818 115.401L194.981 115.812L195.666 118.089L197.503 117.679L196.818 115.401Z" fill="black"/>
<path d="M200.492 114.58L198.655 114.991L199.34 117.268L201.177 116.857L200.492 114.58Z" fill="black"/>
<path d="M202.329 114.17L200.492 114.58L201.177 116.858L203.014 116.447L202.329 114.17Z" fill="black"/>
<path d="M204.166 113.759L202.329 114.17L203.014 116.447L204.851 116.036L204.166 113.759Z" fill="black"/>
<path d="M206.003 113.348L204.166 113.759L204.851 116.036L206.688 115.626L206.003 113.348Z" fill="black"/>
<path d="M209.677 112.527L207.84 112.938L208.525 115.215L210.362 114.805L209.677 112.527Z" fill="black"/>
<path d="M213.351 111.706L211.514 112.117L212.198 114.394L214.035 113.983L213.351 111.706Z" fill="black"/>
<path d="M215.188 111.295L213.351 111.706L214.035 113.983L215.872 113.573L215.188 111.295Z" fill="black"/>
<path d="M220.698 110.064L218.861 110.474L219.546 112.752L221.383 112.341L220.698 110.064Z" fill="black"/>
<path d="M222.535 109.653L220.698 110.064L221.383 112.341L223.22 111.93L222.535 109.653Z" fill="black"/>
<path d="M226.209 108.832L224.372 109.243L225.057 111.52L226.894 111.109L226.209 108.832Z" fill="black"/>
<path d="M237.231 106.368L235.394 106.779L236.079 109.056L237.916 108.646L237.231 106.368Z" fill="black"/>
<path d="M193.829 118.5L191.992 118.911L192.677 121.188L194.514 120.777L193.829 118.5Z" fill="black"/>
<path d="M197.503 117.679L195.666 118.089L196.351 120.367L198.188 119.956L197.503 117.679Z" fill="black"/>
<path d="M199.34 117.268L197.503 117.679L198.188 119.956L200.025 119.545L199.34 117.268Z" fill="black"/>
<path d="M203.014 116.447L201.177 116.858L201.862 119.135L203.698 118.724L203.014 116.447Z" fill="black"/>
<path d="M219.546 112.752L217.709 113.162L218.394 115.439L220.231 115.029L219.546 112.752Z" fill="black"/>
<path d="M221.383 112.341L219.546 112.752L220.231 115.029L222.068 114.618L221.383 112.341Z" fill="black"/>
<path d="M223.22 111.93L221.383 112.341L222.068 114.618L223.905 114.208L223.22 111.93Z" fill="black"/>
<path d="M225.057 111.52L223.22 111.93L223.905 114.208L225.742 113.797L225.057 111.52Z" fill="black"/>
<path d="M230.568 110.288L228.731 110.699L229.416 112.976L231.253 112.565L230.568 110.288Z" fill="black"/>
<path d="M236.079 109.056L234.242 109.467L234.926 111.744L236.763 111.334L236.079 109.056Z" fill="black"/>
<path d="M194.514 120.777L192.677 121.188L193.362 123.465L195.198 123.055L194.514 120.777Z" fill="black"/>
<path d="M196.351 120.367L194.514 120.777L195.198 123.055L197.035 122.644L196.351 120.367Z" fill="black"/>
<path d="M198.188 119.956L196.351 120.367L197.035 122.644L198.872 122.233L198.188 119.956Z" fill="black"/>
<path d="M200.024 119.545L198.188 119.956L198.872 122.233L200.709 121.823L200.024 119.545Z" fill="black"/>
<path d="M201.861 119.135L200.024 119.546L200.709 121.823L202.546 121.412L201.861 119.135Z" fill="black"/>
<path d="M203.699 118.724L201.862 119.135L202.547 121.412L204.384 121.002L203.699 118.724Z" fill="black"/>
<path d="M205.536 118.314L203.699 118.724L204.383 121.002L206.22 120.591L205.536 118.314Z" fill="black"/>
<path d="M209.209 117.492L207.373 117.903L208.057 120.18L209.894 119.77L209.209 117.492Z" fill="black"/>
<path d="M211.046 117.082L209.209 117.493L209.894 119.77L211.731 119.359L211.046 117.082Z" fill="black"/>
<path d="M212.883 116.671L211.046 117.082L211.731 119.359L213.568 118.949L212.883 116.671Z" fill="black"/>
<path d="M214.72 116.261L212.883 116.671L213.568 118.949L215.405 118.538L214.72 116.261Z" fill="black"/>
<path d="M216.557 115.85L214.72 116.261L215.405 118.538L217.242 118.128L216.557 115.85Z" fill="black"/>
<path d="M218.394 115.44L216.557 115.85L217.242 118.127L219.079 117.717L218.394 115.44Z" fill="black"/>
<path d="M220.231 115.029L218.394 115.44L219.079 117.717L220.916 117.306L220.231 115.029Z" fill="black"/>
<path d="M222.068 114.618L220.231 115.029L220.916 117.306L222.753 116.896L222.068 114.618Z" fill="black"/>
<path d="M223.905 114.208L222.068 114.618L222.753 116.896L224.59 116.485L223.905 114.208Z" fill="black"/>
<path d="M227.579 113.387L225.742 113.797L226.426 116.075L228.263 115.664L227.579 113.387Z" fill="black"/>
<path d="M229.416 112.976L227.579 113.387L228.263 115.664L230.1 115.253L229.416 112.976Z" fill="black"/>
<path d="M233.089 112.155L231.252 112.565L231.937 114.843L233.774 114.432L233.089 112.155Z" fill="black"/>
<path d="M234.926 111.744L233.089 112.155L233.774 114.432L235.611 114.022L234.926 111.744Z" fill="black"/>
<path d="M236.763 111.334L234.926 111.744L235.611 114.022L237.448 113.611L236.763 111.334Z" fill="black"/>
<path d="M238.601 110.923L236.764 111.334L237.448 113.611L239.285 113.201L238.601 110.923Z" fill="black"/>
<path d="M195.199 123.055L193.362 123.465L194.047 125.743L195.883 125.332L195.199 123.055Z" fill="black"/>
<path d="M198.873 122.233L197.036 122.644L197.72 124.921L199.557 124.511L198.873 122.233Z" fill="black"/>
<path d="M200.709 121.823L198.873 122.233L199.557 124.511L201.394 124.1L200.709 121.823Z" fill="black"/>
<path d="M209.894 119.77L208.057 120.18L208.742 122.458L210.579 122.047L209.894 119.77Z" fill="black"/>
<path d="M211.731 119.359L209.894 119.77L210.579 122.047L212.416 121.637L211.731 119.359Z" fill="black"/>
<path d="M213.568 118.949L211.731 119.359L212.416 121.637L214.253 121.226L213.568 118.949Z" fill="black"/>
<path d="M215.405 118.538L213.568 118.949L214.253 121.226L216.09 120.815L215.405 118.538Z" fill="black"/>
<path d="M220.916 117.306L219.079 117.717L219.763 119.994L221.6 119.584L220.916 117.306Z" fill="black"/>
<path d="M222.752 116.896L220.916 117.306L221.6 119.584L223.437 119.173L222.752 116.896Z" fill="black"/>
<path d="M226.427 116.075L224.59 116.485L225.275 118.763L227.112 118.352L226.427 116.075Z" fill="black"/>
<path d="M230.101 115.253L228.264 115.664L228.948 117.941L230.785 117.531L230.101 115.253Z" fill="black"/>
<path d="M231.938 114.843L230.101 115.253L230.785 117.531L232.622 117.12L231.938 114.843Z" fill="black"/>
<path d="M235.611 114.022L233.774 114.432L234.459 116.709L236.296 116.299L235.611 114.022Z" fill="black"/>
<path d="M239.285 113.2L237.448 113.611L238.133 115.888L239.97 115.478L239.285 113.2Z" fill="black"/>
<path d="M195.883 125.332L194.046 125.743L194.731 128.02L196.568 127.609L195.883 125.332Z" fill="black"/>
<path d="M201.395 124.1L199.558 124.511L200.242 126.788L202.079 126.377L201.395 124.1Z" fill="black"/>
<path d="M206.905 122.868L205.068 123.279L205.753 125.556L207.59 125.146L206.905 122.868Z" fill="black"/>
<path d="M210.579 122.047L208.742 122.458L209.426 124.735L211.263 124.325L210.579 122.047Z" fill="black"/>
<path d="M212.416 121.637L210.579 122.047L211.264 124.325L213.101 123.914L212.416 121.637Z" fill="black"/>
<path d="M217.927 120.405L216.09 120.815L216.775 123.093L218.612 122.682L217.927 120.405Z" fill="black"/>
<path d="M219.764 119.994L217.927 120.405L218.612 122.682L220.448 122.272L219.764 119.994Z" fill="black"/>
<path d="M221.6 119.584L219.763 119.994L220.448 122.272L222.285 121.861L221.6 119.584Z" fill="black"/>
<path d="M225.274 118.763L223.438 119.173L224.122 121.45L225.959 121.04L225.274 118.763Z" fill="black"/>
<path d="M227.111 118.352L225.274 118.762L225.959 121.04L227.796 120.629L227.111 118.352Z" fill="black"/>
<path d="M228.948 117.941L227.111 118.352L227.796 120.629L229.633 120.219L228.948 117.941Z" fill="black"/>
<path d="M230.785 117.531L228.948 117.941L229.633 120.219L231.47 119.808L230.785 117.531Z" fill="black"/>
<path d="M232.622 117.12L230.785 117.531L231.47 119.808L233.307 119.398L232.622 117.12Z" fill="black"/>
<path d="M236.296 116.299L234.459 116.71L235.144 118.987L236.981 118.576L236.296 116.299Z" fill="black"/>
<path d="M238.133 115.888L236.296 116.299L236.981 118.576L238.818 118.166L238.133 115.888Z" fill="black"/>
<path d="M211.264 124.325L209.427 124.735L210.112 127.013L211.948 126.602L211.264 124.325Z" fill="black"/>
<path d="M213.101 123.914L211.264 124.325L211.948 126.602L213.785 126.191L213.101 123.914Z" fill="black"/>
<path d="M216.774 123.093L214.938 123.503L215.622 125.781L217.459 125.37L216.774 123.093Z" fill="black"/>
<path d="M218.611 122.682L216.774 123.093L217.459 125.37L219.296 124.96L218.611 122.682Z" fill="black"/>
<path d="M220.448 122.272L218.611 122.682L219.296 124.96L221.133 124.549L220.448 122.272Z" fill="black"/>
<path d="M225.959 121.04L224.122 121.45L224.807 123.728L226.644 123.317L225.959 121.04Z" fill="black"/>
<path d="M233.307 119.398L231.47 119.808L232.154 122.085L233.991 121.675L233.307 119.398Z" fill="black"/>
<path d="M238.818 118.166L236.981 118.576L237.666 120.854L239.503 120.443L238.818 118.166Z" fill="black"/>
<path d="M197.253 129.887L195.416 130.297L196.101 132.575L197.938 132.164L197.253 129.887Z" fill="black"/>
<path d="M199.09 129.476L197.253 129.887L197.938 132.164L199.775 131.753L199.09 129.476Z" fill="black"/>
<path d="M200.927 129.066L199.09 129.476L199.775 131.754L201.612 131.343L200.927 129.066Z" fill="black"/>
<path d="M202.764 128.655L200.927 129.066L201.612 131.343L203.448 130.932L202.764 128.655Z" fill="black"/>
<path d="M204.601 128.244L202.764 128.655L203.448 130.932L205.285 130.522L204.601 128.244Z" fill="black"/>
<path d="M206.438 127.834L204.601 128.244L205.285 130.522L207.122 130.111L206.438 127.834Z" fill="black"/>
<path d="M208.274 127.423L206.438 127.834L207.122 130.111L208.959 129.701L208.274 127.423Z" fill="black"/>
<path d="M215.622 125.781L213.785 126.191L214.47 128.469L216.307 128.058L215.622 125.781Z" fill="black"/>
<path d="M217.459 125.37L215.622 125.781L216.307 128.058L218.144 127.648L217.459 125.37Z" fill="black"/>
<path d="M226.644 123.317L224.807 123.728L225.492 126.005L227.329 125.595L226.644 123.317Z" fill="black"/>
<path d="M230.317 122.496L228.48 122.907L229.165 125.184L231.002 124.774L230.317 122.496Z" fill="black"/>
<path d="M233.992 121.675L232.155 122.085L232.84 124.363L234.676 123.952L233.992 121.675Z" fill="black"/>
<path d="M235.829 121.264L233.992 121.675L234.676 123.952L236.513 123.542L235.829 121.264Z" fill="black"/>
<path d="M241.339 120.033L239.502 120.443L240.187 122.72L242.024 122.31L241.339 120.033Z" fill="black"/>
<path d="M197.938 132.164L196.101 132.575L196.785 134.852L198.622 134.441L197.938 132.164Z" fill="black"/>
<path d="M208.959 129.7L207.123 130.111L207.807 132.388L209.644 131.978L208.959 129.7Z" fill="black"/>
<path d="M214.47 128.469L212.633 128.879L213.318 131.157L215.155 130.746L214.47 128.469Z" fill="black"/>
<path d="M221.818 126.826L219.981 127.237L220.666 129.514L222.503 129.104L221.818 126.826Z" fill="black"/>
<path d="M223.655 126.416L221.818 126.826L222.503 129.104L224.34 128.693L223.655 126.416Z" fill="black"/>
<path d="M225.492 126.005L223.655 126.416L224.34 128.693L226.176 128.283L225.492 126.005Z" fill="black"/>
<path d="M227.329 125.595L225.492 126.005L226.176 128.282L228.013 127.872L227.329 125.595Z" fill="black"/>
<path d="M234.676 123.952L232.839 124.363L233.524 126.64L235.361 126.23L234.676 123.952Z" fill="black"/>
<path d="M240.187 122.721L238.35 123.131L239.035 125.408L240.872 124.998L240.187 122.721Z" fill="black"/>
<path d="M242.024 122.31L240.187 122.72L240.872 124.998L242.709 124.587L242.024 122.31Z" fill="black"/>
<path d="M198.623 134.441L196.786 134.852L197.47 137.129L199.307 136.719L198.623 134.441Z" fill="black"/>
<path d="M202.296 133.62L200.459 134.031L201.144 136.308L202.981 135.898L202.296 133.62Z" fill="black"/>
<path d="M204.133 133.21L202.296 133.62L202.981 135.898L204.818 135.487L204.133 133.21Z" fill="black"/>
<path d="M205.97 132.799L204.133 133.21L204.818 135.487L206.655 135.076L205.97 132.799Z" fill="black"/>
<path d="M209.644 131.978L207.807 132.389L208.492 134.666L210.329 134.255L209.644 131.978Z" fill="black"/>
<path d="M213.318 131.157L211.481 131.567L212.166 133.845L214.003 133.434L213.318 131.157Z" fill="black"/>
<path d="M215.155 130.746L213.318 131.157L214.003 133.434L215.84 133.024L215.155 130.746Z" fill="black"/>
<path d="M216.992 130.335L215.155 130.746L215.84 133.023L217.676 132.613L216.992 130.335Z" fill="black"/>
<path d="M218.829 129.925L216.992 130.335L217.676 132.613L219.513 132.202L218.829 129.925Z" fill="black"/>
<path d="M220.666 129.514L218.829 129.925L219.513 132.202L221.35 131.792L220.666 129.514Z" fill="black"/>
<path d="M224.339 128.693L222.502 129.104L223.187 131.381L225.024 130.971L224.339 128.693Z" fill="black"/>
<path d="M226.176 128.283L224.339 128.693L225.024 130.97L226.861 130.56L226.176 128.283Z" fill="black"/>
<path d="M228.013 127.872L226.176 128.283L226.861 130.56L228.698 130.149L228.013 127.872Z" fill="black"/>
<path d="M229.85 127.461L228.013 127.872L228.698 130.149L230.535 129.739L229.85 127.461Z" fill="black"/>
<path d="M231.688 127.051L229.851 127.461L230.535 129.739L232.372 129.328L231.688 127.051Z" fill="black"/>
<path d="M233.524 126.64L231.687 127.051L232.372 129.328L234.209 128.918L233.524 126.64Z" fill="black"/>
<path d="M235.361 126.23L233.524 126.64L234.209 128.918L236.046 128.507L235.361 126.23Z" fill="black"/>
<path d="M237.198 125.819L235.361 126.229L236.046 128.507L237.883 128.096L237.198 125.819Z" fill="black"/>
<path d="M199.307 136.719L197.47 137.129L198.155 139.407L199.992 138.996L199.307 136.719Z" fill="black"/>
<path d="M202.981 135.898L201.144 136.308L201.829 138.586L203.666 138.175L202.981 135.898Z" fill="black"/>
<path d="M204.818 135.487L202.981 135.898L203.666 138.175L205.503 137.764L204.818 135.487Z" fill="black"/>
<path d="M206.655 135.076L204.818 135.487L205.503 137.764L207.34 137.354L206.655 135.076Z" fill="black"/>
<path d="M210.329 134.255L208.492 134.666L209.176 136.943L211.013 136.533L210.329 134.255Z" fill="black"/>
<path d="M214.002 133.434L212.166 133.845L212.85 136.122L214.687 135.711L214.002 133.434Z" fill="black"/>
<path d="M215.839 133.023L214.002 133.434L214.687 135.711L216.524 135.301L215.839 133.023Z" fill="black"/>
<path d="M219.514 132.202L217.677 132.613L218.362 134.89L220.198 134.48L219.514 132.202Z" fill="black"/>
<path d="M225.024 130.971L223.187 131.381L223.872 133.658L225.709 133.248L225.024 130.971Z" fill="black"/>
<path d="M226.861 130.56L225.024 130.971L225.709 133.248L227.546 132.837L226.861 130.56Z" fill="black"/>
<path d="M228.698 130.149L226.861 130.56L227.546 132.837L229.383 132.427L228.698 130.149Z" fill="black"/>
<path d="M230.535 129.739L228.698 130.149L229.383 132.427L231.22 132.016L230.535 129.739Z" fill="black"/>
<path d="M232.372 129.328L230.535 129.739L231.22 132.016L233.057 131.606L232.372 129.328Z" fill="black"/>
<path d="M234.209 128.918L232.372 129.328L233.057 131.605L234.894 131.195L234.209 128.918Z" fill="black"/>
<path d="M237.883 128.096L236.046 128.507L236.731 130.784L238.568 130.374L237.883 128.096Z" fill="black"/>
<path d="M241.557 127.275L239.72 127.686L240.404 129.963L242.241 129.553L241.557 127.275Z" fill="black"/>
<path d="M243.394 126.865L241.557 127.275L242.241 129.553L244.078 129.142L243.394 126.865Z" fill="black"/>
<path d="M199.992 138.996L198.155 139.407L198.84 141.684L200.676 141.274L199.992 138.996Z" fill="black"/>
<path d="M203.666 138.175L201.829 138.586L202.513 140.863L204.35 140.452L203.666 138.175Z" fill="black"/>
<path d="M205.503 137.764L203.666 138.175L204.351 140.452L206.188 140.042L205.503 137.764Z" fill="black"/>
<path d="M207.34 137.354L205.503 137.764L206.188 140.042L208.025 139.631L207.34 137.354Z" fill="black"/>
<path d="M211.014 136.533L209.177 136.943L209.862 139.221L211.698 138.81L211.014 136.533Z" fill="black"/>
<path d="M216.524 135.301L214.688 135.711L215.372 137.989L217.209 137.578L216.524 135.301Z" fill="black"/>
<path d="M218.361 134.89L216.524 135.301L217.209 137.578L219.046 137.168L218.361 134.89Z" fill="black"/>
<path d="M220.198 134.48L218.361 134.89L219.046 137.168L220.883 136.757L220.198 134.48Z" fill="black"/>
<path d="M223.872 133.658L222.035 134.069L222.72 136.346L224.557 135.936L223.872 133.658Z" fill="black"/>
<path d="M225.709 133.248L223.872 133.659L224.557 135.936L226.394 135.525L225.709 133.248Z" fill="black"/>
<path d="M227.546 132.837L225.709 133.248L226.394 135.525L228.231 135.115L227.546 132.837Z" fill="black"/>
<path d="M229.383 132.427L227.546 132.837L228.231 135.115L230.068 134.704L229.383 132.427Z" fill="black"/>
<path d="M234.894 131.195L233.057 131.605L233.741 133.883L235.578 133.472L234.894 131.195Z" fill="black"/>
<path d="M236.731 130.784L234.894 131.195L235.578 133.472L237.415 133.062L236.731 130.784Z" fill="black"/>
<path d="M240.405 129.963L238.568 130.374L239.253 132.651L241.09 132.241L240.405 129.963Z" fill="black"/>
<path d="M242.241 129.553L240.404 129.963L241.089 132.241L242.926 131.83L242.241 129.553Z" fill="black"/>
<path d="M244.078 129.142L242.241 129.552L242.926 131.83L244.763 131.419L244.078 129.142Z" fill="black"/>
<path d="M200.677 141.273L198.84 141.684L199.525 143.961L201.362 143.551L200.677 141.273Z" fill="black"/>
<path d="M211.698 138.81L209.861 139.221L210.546 141.498L212.383 141.087L211.698 138.81Z" fill="black"/>
<path d="M215.372 137.989L213.535 138.399L214.22 140.677L216.057 140.266L215.372 137.989Z" fill="black"/>
<path d="M226.394 135.525L224.557 135.936L225.241 138.213L227.078 137.803L226.394 135.525Z" fill="black"/>
<path d="M233.741 133.883L231.904 134.293L232.589 136.571L234.426 136.16L233.741 133.883Z" fill="black"/>
<path d="M235.578 133.472L233.741 133.883L234.426 136.16L236.263 135.75L235.578 133.472Z" fill="black"/>
<path d="M237.415 133.062L235.578 133.472L236.263 135.75L238.1 135.339L237.415 133.062Z" fill="black"/>
<path d="M241.089 132.241L239.252 132.651L239.937 134.928L241.774 134.518L241.089 132.241Z" fill="black"/>
<path d="M242.926 131.83L241.089 132.24L241.774 134.518L243.611 134.107L242.926 131.83Z" fill="black"/>
<path d="M244.763 131.419L242.926 131.83L243.611 134.107L245.448 133.697L244.763 131.419Z" fill="black"/>
<path d="M201.361 143.551L199.524 143.962L200.209 146.239L202.046 145.828L201.361 143.551Z" fill="black"/>
<path d="M203.198 143.14L201.361 143.551L202.046 145.828L203.883 145.418L203.198 143.14Z" fill="black"/>
<path d="M205.035 142.73L203.198 143.14L203.883 145.418L205.72 145.007L205.035 142.73Z" fill="black"/>
<path d="M206.872 142.319L205.035 142.73L205.72 145.007L207.557 144.597L206.872 142.319Z" fill="black"/>
<path d="M208.709 141.908L206.872 142.319L207.557 144.596L209.394 144.186L208.709 141.908Z" fill="black"/>
<path d="M210.546 141.498L208.709 141.908L209.394 144.186L211.231 143.775L210.546 141.498Z" fill="black"/>
<path d="M212.383 141.087L210.546 141.498L211.231 143.775L213.068 143.365L212.383 141.087Z" fill="black"/>
<path d="M216.057 140.266L214.22 140.677L214.904 142.954L216.741 142.544L216.057 140.266Z" fill="black"/>
<path d="M223.404 138.624L221.567 139.034L222.252 141.312L224.089 140.901L223.404 138.624Z" fill="black"/>
<path d="M230.752 136.981L228.916 137.392L229.6 139.669L231.437 139.259L230.752 136.981Z" fill="black"/>
<path d="M232.589 136.571L230.752 136.981L231.437 139.259L233.274 138.848L232.589 136.571Z" fill="black"/>
<path d="M234.426 136.16L232.589 136.571L233.274 138.848L235.111 138.438L234.426 136.16Z" fill="black"/>
<path d="M239.937 134.929L238.1 135.339L238.785 137.616L240.622 137.206L239.937 134.929Z" fill="black"/>
<path d="M245.448 133.697L243.611 134.107L244.296 136.385L246.133 135.974L245.448 133.697Z" fill="black"/>
</g>
</g>
<g filter="url(#filter1_i)">
<path d="M178.072 25.6731C177.756 25.7429 177.404 25.4818 177.287 25.0898C177.17 24.6978 177.331 24.3233 177.647 24.2535C177.963 24.1836 178.314 24.4447 178.432 24.8368C178.549 25.2288 178.388 25.6032 178.072 25.6731Z" fill="#ECECEC"/>
</g>
<g filter="url(#filter2_i)">
<path d="M183.439 24.71L192.135 22.7875C192.543 22.6973 192.753 22.2106 192.602 21.7044C192.45 21.1982 191.994 20.8588 191.586 20.949L182.89 22.8714C182.482 22.9616 182.272 23.4483 182.423 23.9545C182.575 24.4607 183.031 24.8002 183.439 24.71Z" fill="#D6D6D6"/>
</g>
<path d="M145.931 50.1075L142.914 58.5714L143.297 59.9039L146.3 51.4014L147.623 51.1053L147.125 49.8548L145.931 50.1075Z" fill="#D6D6D6"/>
</g>
<path opacity="0.1" d="M52.1777 160.052C61.1214 154.962 69.6492 152.177 73.2022 158.42C76.758 164.667 70.0872 170.603 61.095 175.721C52.1513 180.811 43.6235 183.596 40.0705 177.353C36.5147 171.106 43.1855 165.17 52.1777 160.052Z" fill="#230B34"/>
<path opacity="0.1" d="M55.1529 156.593C50.2725 158.704 44.7047 156.565 42.6374 151.786C40.5701 147.006 42.8245 141.484 47.705 139.373C52.5837 137.263 58.1533 139.401 60.2206 144.18C62.2878 148.96 60.0317 154.482 55.1529 156.593Z" fill="#230B34"/>
</g>
<defs>
<filter id="filter0_d" x="31.3325" y="7.84058" width="302.272" height="401.989" filterUnits="userSpaceOnUse" color-interpolation-filters="sRGB">
<feFlood flood-opacity="0" result="BackgroundImageFix"/>
<feColorMatrix in="SourceAlpha" type="matrix" values="0 0 0 0 0 0 0 0 0 0 0 0 0 0 0 0 0 0 127 0" result="hardAlpha"/>
<feOffset dx="-37" dy="72"/>
<feGaussianBlur stdDeviation="35.5"/>
<feColorMatrix type="matrix" values="0 0 0 0 0 0 0 0 0 0 0 0 0 0 0 0 0 0 0.25 0"/>
<feBlend mode="normal" in2="BackgroundImageFix" result="effect1_dropShadow"/>
<feBlend mode="normal" in="SourceGraphic" in2="effect1_dropShadow" result="shape"/>
</filter>
<filter id="filter1_i" x="177.249" y="24.2422" width="1.2207" height="2.44214" filterUnits="userSpaceOnUse" color-interpolation-filters="sRGB">
<feFlood flood-opacity="0" result="BackgroundImageFix"/>
<feBlend mode="normal" in="SourceGraphic" in2="BackgroundImageFix" result="shape"/>
<feColorMatrix in="SourceAlpha" type="matrix" values="0 0 0 0 0 0 0 0 0 0 0 0 0 0 0 0 0 0 127 0" result="hardAlpha"/>
<feOffset dy="1"/>
<feGaussianBlur stdDeviation="1"/>
<feComposite in2="hardAlpha" operator="arithmetic" k2="-1" k3="1"/>
<feColorMatrix type="matrix" values="0 0 0 0 0 0 0 0 0 0 0 0 0 0 0 0 0 0 0.18 0"/>
<feBlend mode="normal" in2="shape" result="effect1_innerShadow"/>
</filter>
<filter id="filter2_i" x="182.374" y="20.9346" width="10.2769" height="4.78979" filterUnits="userSpaceOnUse" color-interpolation-filters="sRGB">
<feFlood flood-opacity="0" result="BackgroundImageFix"/>
<feBlend mode="normal" in="SourceGraphic" in2="BackgroundImageFix" result="shape"/>
<feColorMatrix in="SourceAlpha" type="matrix" values="0 0 0 0 0 0 0 0 0 0 0 0 0 0 0 0 0 0 127 0" result="hardAlpha"/>
<feOffset dy="1"/>
<feGaussianBlur stdDeviation="1"/>
<feComposite in2="hardAlpha" operator="arithmetic" k2="-1" k3="1"/>
<feColorMatrix type="matrix" values="0 0 0 0 0 0 0 0 0 0 0 0 0 0 0 0 0 0 0.18 0"/>
<feBlend mode="normal" in2="shape" result="effect1_innerShadow"/>
</filter>
<linearGradient id="paint0_linear" x1="143.154" y1="35.5554" x2="247.112" y2="222.717" gradientUnits="userSpaceOnUse">
<stop stop-color="white"/>
<stop offset="0.0885417" stop-color="#F7F7F7"/>
<stop offset="0.933918" stop-color="#F7F7F7"/>
<stop offset="1" stop-color="white"/>
</linearGradient>
<linearGradient id="paint1_linear" x1="185.687" y1="16.3099" x2="300.544" y2="327.606" gradientUnits="userSpaceOnUse">
<stop stop-color="#F5F5F5"/>
<stop offset="1" stop-color="#EBEBEB"/>
</linearGradient>
<clipPath id="clip0">
<rect width="295" height="182" fill="white"/>
</clipPath>
<clipPath id="clip1">
<rect width="133.592" height="90.4975" rx="10" transform="matrix(0.884186 -0.467136 0.239671 0.970854 9.30322 114.687)" fill="white"/>
</clipPath>
<clipPath id="clip2">
<rect width="40.4076" height="39.154" fill="white" transform="matrix(0.884186 -0.467136 0.239671 0.970854 85.2349 83.7639)"/>
</clipPath>
<clipPath id="clip3">
<rect width="88.6922" height="236.989" fill="white" transform="matrix(-0.975918 0.218138 0.287942 0.957648 230.129 10.7639)"/>
</clipPath>
<clipPath id="clip4">
<rect width="53.779" height="67.945" fill="white" transform="matrix(0.975918 -0.218138 0.287942 0.957648 178.768 86.1047)"/>
</clipPath>
</defs>
</svg>
